<?xml version="1.0" encoding="UTF-8"?>
<svg width="500" height="500" version="1.1" viewBox="0 0 132.3 132.3" xmlns="http://www.w3.org/2000/svg" xmlns:cc="http://creativecommons.org/ns#" xmlns:dc="http://purl.org/dc/elements/1.1/" xmlns:rdf="http://www.w3.org/1999/02/22-rdf-syntax-ns#">
 <metadata>
  <rdf:RDF>
   <cc:Work rdf:about="">
    <dc:format>image/svg+xml</dc:format>
    <dc:type rdf:resource="http://purl.org/dc/dcmitype/StillImage"/>
    <dc:title/>
   </cc:Work>
  </rdf:RDF>
 </metadata>
 <path id="backgroundhx" d="m66.15 9.45c10.49 3e-7 43.86 19.26 49.1 28.35 5.244 9.084 5.244 47.61-1e-5 56.7-5.244 9.084-38.61 28.35-49.1 28.35s-43.86-19.26-49.1-28.35c-5.244-9.084-5.244-47.61 1e-6 -56.7 5.244-9.084 38.61-28.35 49.1-28.35z" fill="#71c3b1" style="paint-order:stroke fill"/>
 <g id="minutes_angle" fill-opacity=".2037">
  <path id="minAng_top" d="m66.15 9.449c-5.244 0-16.21 4.816-26.52 10.77 8.497-4.906 44.54-4.906 53.03 0-10.31-5.952-21.27-10.77-26.52-10.77z" style="paint-order:stroke fill"/>
  <path id="minAng_topR" d="m92.66 20.22c8.497 4.906 26.52 36.12 26.52 45.93 0-11.9-1.311-23.81-3.933-28.35-2.622-4.542-12.28-11.63-22.58-17.58z" style="paint-order:stroke fill"/>
  <path id="minAng_bottomR" d="m119.2 66.15c0 9.811-18.02 41.02-26.52 45.93 10.31-5.952 19.96-13.04 22.58-17.58 2.622-4.542 3.933-16.44 3.933-28.35z" style="paint-order:stroke fill"/>
  <path id="minAng_bottom" d="m92.66 112.1c-8.497 4.906-44.54 4.906-53.03 0 10.31 5.952 21.27 10.77 26.52 10.77 5.244 0 16.21-4.816 26.52-10.77z" style="paint-order:stroke fill"/>
  <path id="minAng_bottomL" d="m39.63 112.1c-8.497-4.906-26.52-36.12-26.52-45.93 0 11.9 1.311 23.81 3.933 28.35 2.622 4.542 12.28 11.63 22.58 17.58z" style="paint-order:stroke fill"/>
  <path id="minAng_topL" d="m13.11 66.15c0-9.811 18.02-41.02 26.52-45.93-10.31 5.952-19.96 13.04-22.58 17.58-2.622 4.542-3.933 16.44-3.933 28.35z" style="paint-order:stroke fill"/>
 </g>
 <g id="minutes_middle" fill="#0b0808" fill-opacity=".1176">
  <path id="minMid_right" d="m119.2 66.15c0-4.906-4.505-15.16-10.07-24.8 4.589 7.948 4.589 41.66 0 49.61 5.567-9.642 10.07-19.9 10.07-24.8z" style="paint-order:stroke fill"/>
  <path id="minMid_rightB" d="m109.1 90.95c-4.589 7.948-33.78 24.8-42.96 24.8 11.13 0 22.27-1.226 26.52-3.679 4.248-2.453 10.88-11.48 16.44-21.12z" style="paint-order:stroke fill"/>
  <path id="minMid_leftB" d="m66.15 115.8c-9.177 0-38.37-16.86-42.96-24.8 5.567 9.642 12.2 18.67 16.44 21.12 4.248 2.453 15.38 3.679 26.52 3.679z" style="paint-order:stroke fill"/>
  <path id="minMid_left" d="m23.18 90.95c-4.589-7.948-4.589-41.66 0-49.61-5.567 9.642-10.07 19.9-10.07 24.8 0 4.906 4.505 15.16 10.07 24.8z" style="paint-order:stroke fill"/>
  <path id="minMId_leftT" d="m23.18 41.34c4.589-7.948 33.78-24.8 42.96-24.8-11.13 0-22.27 1.226-26.52 3.679-4.248 2.453-10.88 11.48-16.44 21.12z" style="paint-order:stroke fill"/>
  <path id="minMid_rightT" d="m66.15 16.54c9.177 0 38.37 16.86 42.96 24.8-5.567-9.642-12.2-18.67-16.44-21.12-4.248-2.453-15.38-3.679-26.52-3.679z" style="paint-order:stroke fill"/>
 </g>
 <g id="cubex">
  <path id="cubex_top" d="m66.15 37.76c-5.301 0-22.04 9.908-24.7 14.5 2.111 2.721 20.68 13.45 24.38 14.12 0.0598 0.0108 0.116 0.0188 0.1679 0.0243 0.052 5e-3 0.0999 8e-3 0.1437 8e-3s0.0917-3e-3 0.1437-8e-3c0.0519-5e-3 0.1081-0.0135 0.1679-0.0243 3.708-0.6682 22.27-11.4 24.38-14.12-2.65-4.591-19.39-14.5-24.7-14.5z" fill-opacity=".03529" style="paint-order:stroke fill"/>
  <path id="cubex_left" d="m41.45 52.26c-2.474 4.995-2.428 23.61 0.1447 28.06 2.622 4.542 19.31 14.17 24.55 14.17v-28.08c-2.804 0-22.52-11.35-24.7-14.16z" fill-opacity=".05098" style="paint-order:stroke fill"/>
  <path id="cubex_right" d="m90.84 52.26c-2.178 2.808-21.89 14.16-24.7 14.16v28.08c5.244 0 21.93-9.632 24.55-14.17 2.572-4.456 2.619-23.07 0.1447-28.06z" fill-opacity=".06274" stroke-opacity="0" style="paint-order:stroke fill"/>
 </g>
 <g id="sunmoon_indicator">
  <g id="sun" transform="matrix(.8916 0 0 .8916 41 38.7)" fill="#fff">
   <path d="m66.12 4.72a3.961 3.961 0 0 0-3.961 3.961 3.961 3.961 0 0 0 3.961 3.962 3.961 3.961 0 0 0 3.961-3.962 3.961 3.961 0 0 0-3.961-3.961z"/>
   <path d="m59.31 8.205c-0.2637 0-0.4771 0.212-0.4771 0.4757s0.2134 0.4771 0.4771 0.4771h1.105c0.2637 0 0.4771-0.2134 0.4771-0.4771s-0.2134-0.4757-0.4771-0.4757z"/>
   <path d="m71.82 8.205c-0.2637 0-0.4771 0.212-0.4771 0.4757s0.2134 0.4771 0.4771 0.4771h1.105c0.2637 0 0.4771-0.2134 0.4771-0.4771s-0.2134-0.4757-0.4771-0.4757z"/>
   <path d="m69.47 2.362c-0.1179 0.03018-0.2251 0.1055-0.2923 0.219l-0.5628 0.952c-0.1344 0.2269-0.05989 0.5181 0.167 0.6524 0.2268 0.1344 0.518 0.0599 0.6524-0.167l0.5628-0.952c0.1344-0.2269 0.05989-0.5181-0.167-0.6524-0.1134-0.06723-0.2423-0.08218-0.3602-0.05196z"/>
   <path d="m63.1 13.12c-0.1179 0.03018-0.2251 0.1056-0.2923 0.219l-0.5628 0.952c-0.1344 0.2269-0.06025 0.5167 0.1667 0.6511 0.2269 0.1344 0.5181 0.0599 0.6524-0.167l0.5631-0.9507c0.1344-0.2269 0.05989-0.5181-0.167-0.6524-0.1135-0.0672-0.2423-0.08217-0.3602-0.05195z"/>
   <path d="m62.77 2.362c-0.1179-0.03018-0.2467-0.01524-0.3602 0.05197-0.2269 0.1344-0.3015 0.4255-0.167 0.6524l0.5628 0.952c0.1344 0.2269 0.4255 0.3015 0.6524 0.167 0.2269-0.1344 0.3015-0.4255 0.167-0.6524l-0.5628-0.952c-0.0672-0.1135-0.1744-0.1889-0.2923-0.219z"/>
   <path d="m69.14 13.12c-0.1179-0.03018-0.2467-0.01526-0.3602 0.05197-0.2269 0.1344-0.3015 0.4255-0.167 0.6524l0.5631 0.9507c0.1344 0.2269 0.4255 0.3015 0.6525 0.167 0.2268-0.1344 0.3011-0.4242 0.1667-0.6511l-0.5628-0.952c-0.06708-0.1135-0.1744-0.1889-0.2923-0.219z"/>
  </g>
  <path id="moon_mask" d="m100 39.5c-3.972-4.92e-4 -6.924 2.683-6.925 6.655-4.91e-4 3.973 2.414 7.193 6.387 7.193 3.972-1.77e-4 7.193-3.22 7.192-7.193-1.8e-4 -3.972-2.683-6.655-6.655-6.655zm1.513 2.902c1.373 0.7498 2.226 2.189 2.226 3.753 7e-5 2.362-1.915 4.277-4.277 4.277-1.75-7.87e-4 -3.324-1.068-3.971-2.694 4.204 2.119 7.313-2.243 6.022-5.336z" fill="#71c3b1" opacity=".539" stroke-width=".8916"/>
 </g>
</svg>
