<?xml version="1.0" encoding="UTF-8"?>
<svg width="500" height="500" version="1.1" viewBox="0 0 132.29 132.29" xmlns="http://www.w3.org/2000/svg" xmlns:cc="http://creativecommons.org/ns#" xmlns:dc="http://purl.org/dc/elements/1.1/" xmlns:rdf="http://www.w3.org/1999/02/22-rdf-syntax-ns#">
 <metadata>
  <rdf:RDF>
   <cc:Work rdf:about="">
    <dc:format>image/svg+xml</dc:format>
    <dc:type rdf:resource="http://purl.org/dc/dcmitype/StillImage"/>
    <dc:title/>
   </cc:Work>
  </rdf:RDF>
 </metadata>
 <g id="quadranhx">
  <path id="backgroundhx" d="m66.146 9.4495c10.489 3e-7 43.856 19.265 49.101 28.348 5.2444 9.0836 5.2444 47.613-1e-5 56.696-5.2444 9.0836-38.612 28.348-49.101 28.348s-43.856-19.265-49.101-28.348c-5.2444-9.0836-5.2444-47.613 1e-6 -56.696 5.2444-9.0836 38.612-28.348 49.101-28.348z" fill="#71c3b1" style="paint-order:stroke fill"/>
  <g id="minutes_angle" fill-opacity=".20373">
   <path id="minAng_top" d="m66.146 9.4493c-5.2444 0-16.209 4.8162-26.517 10.768 8.4968-4.9056 44.537-4.9056 53.034 0-10.308-5.9516-21.272-10.768-26.517-10.768z" style="paint-order:stroke fill"/>
   <path id="minAng_topR" d="m92.663 20.217c8.4968 4.9056 26.517 36.118 26.517 45.929 0-11.903-1.3109-23.806-3.9331-28.348-2.6222-4.5418-12.275-11.629-22.584-17.581z" style="paint-order:stroke fill"/>
   <path id="minAng_bottomR" d="m119.18 66.146c0 9.8113-18.02 41.023-26.517 45.928 10.308-5.9516 19.961-13.039 22.584-17.58 2.6222-4.5418 3.9331-16.445 3.9331-28.348z" style="paint-order:stroke fill"/>
   <path id="minAng_bottom" d="m92.663 112.07c-8.4968 4.9056-44.537 4.9056-53.034 0 10.308 5.9516 21.273 10.768 26.517 10.768 5.2444 0 16.208-4.8162 26.517-10.768z" style="paint-order:stroke fill"/>
   <path id="minAng_bottomL" d="m39.629 112.07c-8.4968-4.9056-26.517-36.117-26.517-45.928 0 11.903 1.3109 23.806 3.9331 28.348 2.6222 4.5418 12.275 11.629 22.584 17.58z" style="paint-order:stroke fill"/>
   <path id="minAng_topL" d="m13.112 66.146c0-9.8113 18.02-41.023 26.517-45.929-10.308 5.9516-19.961 13.039-22.584 17.581-2.6222 4.5418-3.9331 16.445-3.9331 28.348z" style="paint-order:stroke fill"/>
  </g>
  <g id="minutes_middle" fill="#0b0808" fill-opacity=".11765">
   <path id="minMid_right" d="m119.18 66.146c0-4.9056-4.505-15.162-10.072-24.804 4.5887 7.9479 4.5887 41.66 0 49.608 5.5671-9.6425 10.072-19.898 10.072-24.804z" style="paint-order:stroke fill"/>
   <path id="minMid_rightB" d="m109.11 90.95c-4.5887 7.9479-33.784 24.804-42.962 24.804 11.134 0 22.268-1.2262 26.517-3.679 4.2484-2.4528 10.878-11.482 16.445-21.125z" style="paint-order:stroke fill"/>
   <path id="minMid_leftB" d="m66.146 115.75c-9.1774 0-38.373-16.856-42.961-24.804 5.5671 9.6425 12.196 18.672 16.445 21.125 4.2484 2.4528 15.383 3.679 26.517 3.679z" style="paint-order:stroke fill"/>
   <path id="minMid_left" d="m23.184 90.95c-4.5887-7.9479-4.5887-41.66 0-49.608-5.5671 9.6425-10.072 19.899-10.072 24.804 0 4.9056 4.5051 15.161 10.072 24.804z" style="paint-order:stroke fill"/>
   <path id="minMId_leftT" d="m23.184 41.342c4.5887-7.9479 33.784-24.804 42.961-24.804-11.134 0-22.268 1.2262-26.517 3.679-4.2484 2.4528-10.877 11.482-16.445 21.125z" style="paint-order:stroke fill"/>
   <path id="minMid_rightT" d="m66.146 16.538c9.1774 0 38.373 16.856 42.962 24.804-5.5671-9.6425-12.197-18.672-16.445-21.125-4.2484-2.4528-15.383-3.679-26.517-3.679z" style="paint-order:stroke fill"/>
  </g>
  <g id="sunmoon_indicator">
   <path id="sun" d="m99.947 39.993c-0.23513 0-0.42414 0.18901-0.42414 0.42414v0.98637c7e-6 0.23513 0.18902 0.42414 0.42414 0.42414 0.23511 0 0.42414-0.18901 0.42414-0.42414v-0.98637c0-0.23513-0.18903-0.42414-0.42414-0.42414zm-4.2919 1.7767c-0.10848 0-0.21648 0.0414-0.29961 0.12453-0.16626 0.16626-0.16626 0.4342 0 0.60045l0.69663 0.69786c0.16626 0.16626 0.43419 0.16626 0.60045 0s0.16626-0.4342 0-0.60045l-0.69663-0.69786c-0.08313-0.08313-0.19235-0.12453-0.30084-0.12453zm8.5839 0c-0.10849 0-0.21771 0.0414-0.30084 0.12453l-0.69663 0.69786c-0.16626 0.16626-0.16626 0.4342 0 0.60045 0.16625 0.16626 0.43418 0.16626 0.60046 0l0.69663-0.69786c0.16624-0.16626 0.16624-0.4342 0-0.60045-0.083-0.08313-0.19114-0.12453-0.29962-0.12453zm-4.292 1.1849a3.5317 3.5317 0 0 0-3.5312 3.5312 3.5317 3.5317 0 0 0 3.5312 3.5324 3.5317 3.5317 0 0 0 3.5312-3.5324 3.5317 3.5317 0 0 0-3.5312-3.5312zm-6.0686 3.1071c-0.23512 0-0.42537 0.18901-0.42537 0.42414s0.19025 0.42537 0.42537 0.42537h0.98514c0.23512 0 0.42537-0.19025 0.42537-0.42537s-0.19024-0.42414-0.42537-0.42414zm11.152 0c-0.23512 0-0.42537 0.18901-0.42537 0.42414s0.19025 0.42537 0.42537 0.42537h0.98514c0.23513 0 0.42538-0.19025 0.42538-0.42537s-0.19025-0.42414-0.42538-0.42414zm-8.6776 3.5941c-0.10848 0-0.21772 0.04141-0.30084 0.12453l-0.69663 0.69786c-0.16626 0.16626-0.16626 0.43296 0 0.59922s0.43419 0.16626 0.60045 0l0.69663-0.69662c0.16626-0.16626 0.16626-0.4342 0-0.60045-0.08313-0.08314-0.19112-0.12453-0.29961-0.12453zm7.1882 0c-0.10849 0-0.21648 0.04141-0.29961 0.12453-0.16626 0.16626-0.16626 0.4342 0 0.60045l0.69663 0.69662c0.16624 0.16626 0.43418 0.16626 0.60046 0 0.16624-0.16626 0.16624-0.43296 0-0.59922l-0.69663-0.69786c-0.083-0.08314-0.19237-0.12453-0.30085-0.12453zm-3.5941 1.4894c-0.23513 0-0.42414 0.18901-0.42414 0.42414v0.98637c0 0.23512 0.18902 0.42414 0.42414 0.42414 0.23511 0 0.42414-0.18901 0.42414-0.42414v-0.98637c0-0.23513-0.18903-0.42414-0.42414-0.42414z" fill="#fff"/>
   <path id="moon_mask" d="m100.02 39.542c-3.9724-4.92e-4 -6.9244 2.6825-6.9246 6.6549-4.9e-4 3.9728 2.4148 7.1936 6.3876 7.1931 3.9724-1.76e-4 7.1924-3.2207 7.1919-7.1931-1.8e-4 -3.9719-2.683-6.6547-6.6549-6.6549zm1.5134 2.9017c1.3727 0.74978 2.2266 2.189 2.2267 3.7531 7e-5 2.3622-1.9149 4.2772-4.2772 4.2772-1.7503-7.87e-4 -3.3235-1.068-3.9714-2.694 4.2039 2.119 7.3126-2.2436 6.0218-5.3363z" fill="#71c3b1" opacity=".539"/>
  </g>
  <g id="cubex">
   <path id="cubex_top" d="m66.146 37.758c-5.3009 0-22.045 9.9081-24.695 14.499 2.1114 2.7209 20.676 13.454 24.384 14.122 0.0598 0.0108 0.11599 0.0188 0.16793 0.0243 0.052 5e-3 0.0999 8e-3 0.14367 8e-3 0.0438 0 0.0917-3e-3 0.14367-8e-3 0.0519-5e-3 0.10813-0.0135 0.16793-0.0243 3.7081-0.66823 22.274-11.402 24.384-14.123-2.6505-4.5908-19.394-14.498-24.695-14.498z" fill-opacity=".035294" style="paint-order:stroke fill"/>
   <path id="cubex_left" d="m41.451 52.257c-2.4744 4.9947-2.4276 23.608 0.14467 28.063 2.6222 4.5418 19.306 14.174 24.55 14.174v-28.083c-2.8045 0-22.516-11.346-24.695-14.155z" fill-opacity=".05098" style="paint-order:stroke fill"/>
   <path id="cubex_right" d="m90.841 52.256c-2.178 2.8081-21.89 14.155-24.695 14.155v28.083c5.2444 0 21.928-9.6325 24.55-14.174 2.5724-4.4555 2.6193-23.069 0.1447-28.063z" fill-opacity=".062745" stroke-opacity="0" style="paint-order:stroke fill"/>
  </g>
 </g>
</svg>
