<?xml version="1.0" standalone="no"?>
<!DOCTYPE svg PUBLIC "-//W3C//DTD SVG 20010904//EN"
 "http://www.w3.org/TR/2001/REC-SVG-20010904/DTD/svg10.dtd">
<svg version="1.0" xmlns="http://www.w3.org/2000/svg"
 width="256.000000pt" height="256.000000pt" viewBox="0 0 256.000000 256.000000"
 preserveAspectRatio="xMidYMid meet">
<metadata>
Created by potrace 1.11, written by Peter Selinger 2001-2013
</metadata>
<g transform="translate(0.000000,256.000000) scale(0.100000,-0.100000)"
fill="#000000" stroke="none">
<path d="M1155 2370 c-92 -31 -386 -172 -403 -193 -6 -8 25 -152 87 -402 l96
-390 345 0 345 0 96 390 c61 247 93 394 87 402 -5 6 -76 45 -159 87 -154 77
-314 136 -372 136 -17 0 -72 -14 -122 -30z"/>
<path d="M470 1993 c-80 -61 -153 -136 -171 -178 -33 -77 -51 -220 -56 -462
-7 -297 17 -534 62 -624 17 -33 85 -100 156 -155 l56 -43 56 142 c76 197 154
433 173 528 20 99 12 150 -52 351 -44 135 -153 431 -171 461 -6 12 -17 8 -53
-20z"/>
<path d="M2026 1985 c-49 -116 -153 -406 -182 -509 -44 -152 -46 -216 -10
-350 42 -153 199 -586 213 -586 12 0 125 95 165 139 49 55 60 82 85 226 25
143 25 607 0 750 -25 144 -36 171 -85 226 -41 46 -153 139 -166 139 -3 0 -12
-16 -20 -35z"/>
<path d="M933 1183 c-3 -16 -48 -199 -98 -408 l-92 -380 21 -17 c33 -27 273
-144 366 -179 111 -42 185 -43 290 -4 86 31 344 157 376 183 l21 17 -91 380
c-51 209 -95 392 -99 408 l-7 27 -340 0 -340 0 -7 -27z"/>
</g>
</svg>
