<?xml version="1.0" encoding="UTF-8" standalone="no"?>
<!-- Created with Inkscape (http://www.inkscape.org/) -->

<svg
   xmlns:dc="http://purl.org/dc/elements/1.1/"
   xmlns:cc="http://creativecommons.org/ns#"
   xmlns:rdf="http://www.w3.org/1999/02/22-rdf-syntax-ns#"
   xmlns:svg="http://www.w3.org/2000/svg"
   xmlns="http://www.w3.org/2000/svg"
   xmlns:xlink="http://www.w3.org/1999/xlink"
   xmlns:sodipodi="http://sodipodi.sourceforge.net/DTD/sodipodi-0.dtd"
   xmlns:inkscape="http://www.inkscape.org/namespaces/inkscape"
   width="300"
   height="300"
   viewBox="0 0 79.374995 79.374998"
   version="1.1"
   id="svg8"
   inkscape:version="0.92.5 (2060ec1f9f, 2020-04-08)"
   sodipodi:docname="cloch_banner.svg"
   inkscape:export-filename="/home/jake/code/cloch/img/help/cloch_banner.png"
   inkscape:export-xdpi="160"
   inkscape:export-ydpi="160">
  <defs
     id="defs2">
    <linearGradient
       id="linearGradient1094"
       inkscape:collect="always">
      <stop
         id="stop1090"
         offset="0"
         style="stop-color:#f04f94;stop-opacity:1" />
      <stop
         id="stop1098"
         offset="0.29385525"
         style="stop-color:#ffb818;stop-opacity:1" />
      <stop
         style="stop-color:#33ed5b;stop-opacity:1"
         offset="0.68383741"
         id="stop1100" />
      <stop
         id="stop1092"
         offset="1"
         style="stop-color:#17b5f2;stop-opacity:1" />
    </linearGradient>
    <linearGradient
       inkscape:collect="always"
       id="linearGradient2139">
      <stop
         style="stop-color:#00b7fb;stop-opacity:1"
         offset="0"
         id="stop2135" />
      <stop
         style="stop-color:#02ffb2;stop-opacity:1"
         offset="1"
         id="stop2137" />
    </linearGradient>
    <linearGradient
       inkscape:collect="always"
       id="linearGradient984">
      <stop
         style="stop-color:#000000;stop-opacity:0.06521739"
         offset="0"
         id="stop980" />
      <stop
         id="stop988"
         offset="0.57329273"
         style="stop-color:#000000;stop-opacity:0.08695652" />
      <stop
         style="stop-color:#000000;stop-opacity:0;"
         offset="1"
         id="stop982" />
    </linearGradient>
    <filter
       inkscape:label="filtro0"
       id="filter1397"
       style="color-interpolation-filters:sRGB">
      <feBlend
         id="feBlend1399"
         in2="SourceGraphic"
         mode="normal" />
    </filter>
    <filter
       inkscape:label="filtro0"
       id="filter1397-6"
       style="color-interpolation-filters:sRGB">
      <feBlend
         id="feBlend1399-3"
         in2="SourceGraphic"
         mode="normal" />
    </filter>
    <radialGradient
       inkscape:collect="always"
       xlink:href="#linearGradient984"
       id="radialGradient1820"
       cx="920.46326"
       cy="127.46877"
       fx="920.46326"
       fy="127.46877"
       r="57.007816"
       gradientTransform="matrix(1.3252303,7.8360383e-4,-8.4027626e-4,1.4210812,-299.08877,-54.744698)"
       gradientUnits="userSpaceOnUse" />
    <linearGradient
       inkscape:collect="always"
       xlink:href="#linearGradient1094"
       id="linearGradient2141"
       x1="66.691475"
       y1="266.40393"
       x2="141.71201"
       y2="266.40393"
       gradientUnits="userSpaceOnUse"
       gradientTransform="matrix(0.56182318,0,0,2.0498494,20.972117,-292.40018)" />
    <linearGradient
       inkscape:collect="always"
       xlink:href="#linearGradient2139"
       id="linearGradient1064"
       gradientUnits="userSpaceOnUse"
       gradientTransform="matrix(0.56182318,0,0,1.9901047,20.972118,-218.27558)"
       x1="66.691475"
       y1="266.40393"
       x2="141.71201"
       y2="266.40393" />
  </defs>
  <sodipodi:namedview
     id="base"
     pagecolor="#ffffff"
     bordercolor="#666666"
     borderopacity="1.0"
     inkscape:pageopacity="0.0"
     inkscape:pageshadow="2"
     inkscape:zoom="2.6066667"
     inkscape:cx="130.72268"
     inkscape:cy="31.010226"
     inkscape:document-units="mm"
     inkscape:current-layer="g1124"
     showgrid="false"
     inkscape:window-width="1366"
     inkscape:window-height="708"
     inkscape:window-x="0"
     inkscape:window-y="0"
     inkscape:window-maximized="1"
     units="px"
     showguides="false"
     inkscape:guide-bbox="true"
     inkscape:snap-global="true"
     inkscape:snap-bbox="true"
     inkscape:bbox-nodes="true"
     inkscape:snap-bbox-midpoints="true"
     inkscape:bbox-paths="true"
     inkscape:snap-bbox-edge-midpoints="true"
     inkscape:object-paths="true"
     inkscape:object-nodes="true"
     inkscape:snap-object-midpoints="true"
     inkscape:snap-center="true"
     inkscape:snap-intersection-paths="true"
     inkscape:snap-smooth-nodes="true"
     inkscape:snap-midpoints="true"
     inkscape:pagecheckerboard="true">
    <sodipodi:guide
       position="0,0"
       orientation="0,500"
       id="guide1408"
       inkscape:locked="false" />
    <sodipodi:guide
       position="0,79.374998"
       orientation="300,0"
       id="guide1414"
       inkscape:locked="false" />
    <sodipodi:guide
       position="158.74999,0"
       orientation="-400,0"
       id="guide1520"
       inkscape:locked="false" />
    <sodipodi:guide
       position="158.74999,105.83333"
       orientation="0,-600"
       id="guide1522"
       inkscape:locked="false" />
    <sodipodi:guide
       position="0,105.83333"
       orientation="400,0"
       id="guide1524"
       inkscape:locked="false" />
    <sodipodi:guide
       position="58.486605,62.744046"
       orientation="1,0"
       id="guide1888"
       inkscape:locked="false" />
    <sodipodi:guide
       position="149.74975,68.824923"
       orientation="1,0"
       id="guide1890"
       inkscape:locked="false" />
  </sodipodi:namedview>
  <metadata
     id="metadata5">
    <rdf:RDF>
      <cc:Work
         rdf:about="">
        <dc:format>image/svg+xml</dc:format>
        <dc:type
           rdf:resource="http://purl.org/dc/dcmitype/StillImage" />
        <dc:title />
      </cc:Work>
    </rdf:RDF>
  </metadata>
  <g
     inkscape:label="Livello 1"
     inkscape:groupmode="layer"
     id="layer1"
     transform="translate(0,-217.62498)">
    <g
       id="layer3"
       inkscape:label="circle"
       style="display:none"
       transform="matrix(0.25,0,0,0.25,69.264139,239.8311)">
      <circle
         transform="translate(0,-164.70832)"
         style="opacity:1;fill:#0064f7;fill-opacity:0.54477617;fill-rule:nonzero;stroke:none;stroke-width:2.11666656;stroke-linecap:round;stroke-linejoin:round;stroke-miterlimit:4;stroke-dasharray:none;stroke-dashoffset:0;stroke-opacity:1;paint-order:stroke fill markers"
         id="path875"
         cx="66.145836"
         cy="230.85414"
         r="56.69643" />
    </g>
    <g
       id="layer5"
       inkscape:label="SUBHEX"
       style="display:none"
       transform="matrix(0.25,0,0,0.25,69.264139,239.8311)">
      <g
         transform="translate(0,-164.70832)"
         style="display:inline"
         id="g1482">
        <path
           d="m 66.136681,234.4939 c 4.883479,0 20.41889,8.96938 22.860629,13.19859 2.441739,4.22922 2.441739,22.16797 -10e-7,26.39718 -2.441739,4.22922 -17.977151,13.19859 -22.860629,13.19859 -4.883479,0 -20.41889,-8.96937 -22.860629,-13.19859 -2.441739,-4.22921 -2.441738,-22.16796 10e-7,-26.39718 2.441739,-4.22921 17.977151,-13.19859 22.860629,-13.19859 z"
           inkscape:randomized="0"
           inkscape:rounded="0.185"
           inkscape:flatsided="true"
           sodipodi:arg2="-1.0471975"
           sodipodi:arg1="-1.5707963"
           sodipodi:r2="19.032364"
           sodipodi:r1="26.397181"
           sodipodi:cy="260.89108"
           sodipodi:cx="66.136681"
           sodipodi:sides="6"
           id="path1430"
           style="opacity:1;fill:#000000;fill-opacity:0.08196722;fill-rule:nonzero;stroke:none;stroke-width:0.98549461;stroke-linecap:round;stroke-linejoin:round;stroke-miterlimit:4;stroke-dasharray:none;stroke-dashoffset:0;stroke-opacity:1;paint-order:stroke fill markers"
           sodipodi:type="star" />
        <path
           sodipodi:type="star"
           style="opacity:1;fill:#000000;fill-opacity:0.08196722;fill-rule:nonzero;stroke:none;stroke-width:0.98549461;stroke-linecap:round;stroke-linejoin:round;stroke-miterlimit:4;stroke-dasharray:none;stroke-dashoffset:0;stroke-opacity:1;paint-order:stroke fill markers"
           id="path1434"
           sodipodi:sides="6"
           sodipodi:cx="92.328911"
           sodipodi:cy="215.63383"
           sodipodi:r1="26.397181"
           sodipodi:r2="19.032364"
           sodipodi:arg1="-1.5707963"
           sodipodi:arg2="-1.0471975"
           inkscape:flatsided="true"
           inkscape:rounded="0.185"
           inkscape:randomized="0"
           d="m 92.328912,189.23665 c 4.883478,0 20.418888,8.96938 22.860628,13.1986 2.44174,4.22921 2.44174,22.16796 0,26.39718 -2.44174,4.22921 -17.977151,13.19859 -22.86063,13.19859 -4.883478,0 -20.418889,-8.96938 -22.860628,-13.1986 -2.44174,-4.22921 -2.441739,-22.16796 0,-26.39718 2.44174,-4.22921 17.977151,-13.19859 22.86063,-13.19859 z" />
        <path
           d="m 40.015408,189.23665 c 4.883479,0 20.41889,8.96938 22.860629,13.1986 2.441739,4.22921 2.441738,22.16796 -10e-7,26.39718 -2.441739,4.22921 -17.977151,13.19859 -22.860629,13.19859 -4.883479,0 -20.41889,-8.96938 -22.860629,-13.1986 -2.441739,-4.22921 -2.441738,-22.16796 1e-6,-26.39718 2.441739,-4.22921 17.977151,-13.19859 22.860629,-13.19859 z"
           inkscape:randomized="0"
           inkscape:rounded="0.185"
           inkscape:flatsided="true"
           sodipodi:arg2="-1.0471975"
           sodipodi:arg1="-1.5707963"
           sodipodi:r2="19.032364"
           sodipodi:r1="26.397181"
           sodipodi:cy="215.63383"
           sodipodi:cx="40.015408"
           sodipodi:sides="6"
           id="path1436"
           style="opacity:1;fill:#000000;fill-opacity:0.08196722;fill-rule:nonzero;stroke:none;stroke-width:0.98549461;stroke-linecap:round;stroke-linejoin:round;stroke-miterlimit:4;stroke-dasharray:none;stroke-dashoffset:0;stroke-opacity:1;paint-order:stroke fill markers"
           sodipodi:type="star" />
      </g>
    </g>
    <g
       id="layer4"
       inkscape:label="hex 1spigolo"
       style="display:none"
       transform="matrix(0.25,0,0,0.25,69.264139,239.8311)">
      <path
         transform="translate(0,-164.70832)"
         sodipodi:type="star"
         style="display:inline;opacity:1;fill:#eaff02;fill-opacity:0.54477617;fill-rule:nonzero;stroke:none;stroke-width:2.11666656;stroke-linecap:round;stroke-linejoin:round;stroke-miterlimit:4;stroke-dasharray:none;stroke-dashoffset:0;stroke-opacity:1;paint-order:stroke fill markers"
         id="path885"
         sodipodi:sides="6"
         sodipodi:cx="66.145828"
         sodipodi:cy="230.85416"
         sodipodi:r1="56.696438"
         sodipodi:r2="40.878132"
         sodipodi:arg1="-1.5707963"
         sodipodi:arg2="-1.0471975"
         inkscape:flatsided="true"
         inkscape:rounded="0"
         inkscape:randomized="0"
         d="m 66.14583,174.15772 49.10055,28.34822 0,56.69644 -49.100553,28.34821 -49.100555,-28.34822 2e-6,-56.69643 z" />
    </g>
    <g
       id="layer2"
       inkscape:label="star"
       style="display:none"
       transform="matrix(0.25,0,0,0.25,69.264139,239.8311)">
      <path
         transform="translate(0,-164.70832)"
         sodipodi:type="star"
         style="opacity:1;fill:#a70000;fill-opacity:0.54477617;fill-rule:nonzero;stroke:none;stroke-width:2.11666656;stroke-linecap:round;stroke-linejoin:round;stroke-miterlimit:4;stroke-dasharray:none;stroke-dashoffset:0;stroke-opacity:1;paint-order:stroke fill markers"
         id="path877"
         sodipodi:sides="6"
         sodipodi:cx="66.145828"
         sodipodi:cy="230.85416"
         sodipodi:r1="56.696438"
         sodipodi:r2="40.878132"
         sodipodi:arg1="-1.5707963"
         sodipodi:arg2="-1.0471975"
         inkscape:flatsided="false"
         inkscape:rounded="0.23"
         inkscape:randomized="0"
         d="m 66.14583,174.15772 c 6.788818,0 14.559777,17.90053 20.439066,21.29494 5.879289,3.39441 25.267084,1.17399 28.661484,7.05328 3.39441,5.87929 -8.22242,21.5594 -8.22242,28.34822 0,6.78882 11.61683,22.46893 8.22242,28.34822 -3.39441,5.87929 -22.782198,3.65887 -28.661488,7.05328 -5.879289,3.39441 -13.650247,21.29493 -20.439065,21.29493 -6.788819,0 -14.559777,-17.90052 -20.439066,-21.29493 -5.879289,-3.39441 -25.26708,-1.174 -28.661489,-7.05329 -3.394409,-5.87929 8.222424,-21.5594 8.222424,-28.34822 10e-7,-6.78881 -11.616832,-22.46892 -8.222422,-28.34821 3.394409,-5.87929 22.782201,-3.65888 28.66149,-7.05329 5.879289,-3.3944 13.650248,-21.29493 20.439066,-21.29493 z" />
    </g>
    <g
       id="g1124"
       transform="matrix(1.3092304,0,0,1.3092304,-64.416024,-45.08384)"
       style="stroke-width:0.76380742">
      <g
         id="g1702"
         transform="translate(108.88508,41.502893)"
         style="stroke-width:0.76380742">
        <g
           id="g1698"
           style="stroke-width:0.76380742">
          <g
             id="g1111"
             style="stroke-width:0.76380742">
            <path
               style="opacity:1;fill:#ffb818;fill-opacity:1;fill-rule:nonzero;stroke:none;stroke-width:2.3016057;stroke-linecap:round;stroke-linejoin:round;stroke-miterlimit:4;stroke-dasharray:none;stroke-dashoffset:0;stroke-opacity:1;paint-order:stroke fill markers"
               d="m -111.5332,-209.57617 c -7.43413,0 -22.94017,6.80189 -37.56055,15.22461 l 14.62109,58.73633 h 45.876957 l 14.621094,-58.73829 c -14.619704,-8.4221 -30.124851,-15.22265 -37.558591,-15.22265 z"
               transform="matrix(0.26458333,0,0,0.26458333,0,217.62498)"
               id="path1686"
               inkscape:connector-curvature="0" />
            <path
               style="opacity:1;fill:#f04f94;fill-opacity:1;fill-rule:nonzero;stroke:none;stroke-width:2.3016057;stroke-linecap:round;stroke-linejoin:round;stroke-miterlimit:4;stroke-dasharray:none;stroke-dashoffset:0;stroke-opacity:1;paint-order:stroke fill markers"
               d="m -164.9375,-184.29688 c -7.92925,5.5887 -14.16649,11.03975 -16.49805,15.07813 -7.46607,12.93162 -7.46607,67.78323 0,80.714844 2.32517,4.027302 8.53537,9.460591 16.4336,15.033203 7.38656,-18.297981 18.14843,-46.506047 18.14843,-55.759767 0,-9.22567 -10.69903,-36.9808 -18.08398,-55.06641 z"
               transform="matrix(0.26458333,0,0,0.26458333,0,217.62498)"
               id="path1688"
               inkscape:connector-curvature="0" />
            <path
               style="opacity:1;fill:#33ed5b;fill-opacity:1;fill-rule:nonzero;stroke:none;stroke-width:2.3016057;stroke-linecap:round;stroke-linejoin:round;stroke-miterlimit:4;stroke-dasharray:none;stroke-dashoffset:0;stroke-opacity:1;paint-order:stroke fill markers"
               d="m -58.130859,-184.29688 c -7.384956,18.08561 -18.083985,45.84074 -18.083985,55.06641 0,9.25372 10.761871,37.461786 18.148438,55.759767 7.898228,-5.572612 14.10843,-11.005901 16.433594,-15.033203 7.466073,-12.931614 7.466072,-67.783224 0,-80.714844 -2.331559,-4.03838 -8.568794,-9.48943 -16.498047,-15.07813 z"
               transform="matrix(0.26458333,0,0,0.26458333,0,217.62498)"
               id="path1690"
               inkscape:connector-curvature="0" />
            <path
               style="opacity:1;fill:#17b5f2;fill-opacity:1;fill-rule:nonzero;stroke:none;stroke-width:2.3016057;stroke-linecap:round;stroke-linejoin:round;stroke-miterlimit:4;stroke-dasharray:none;stroke-dashoffset:0;stroke-opacity:1;paint-order:stroke fill markers"
               d="m -134.47266,-123.88672 -14.6582,60.496095 c 14.63105,8.432413 30.15735,15.24414 37.59766,15.244141 7.44005,0 22.965088,-6.812123 37.5957,-15.244141 l -14.658203,-60.496095 z"
               transform="matrix(0.26458333,0,0,0.26458333,0,217.62498)"
               id="path1692"
               inkscape:connector-curvature="0" />
            <path
               inkscape:connector-curvature="0"
               style="opacity:1;fill:#ffffff;fill-opacity:0.23111112;fill-rule:nonzero;stroke:none;stroke-width:0.60896647;stroke-linecap:round;stroke-linejoin:round;stroke-miterlimit:4;stroke-dasharray:none;stroke-dashoffset:0;stroke-opacity:1;paint-order:stroke fill markers"
               d="m -24.609608,175.4906 c 0.2545,2.11716 -0.147577,4.30457 -1.067118,6.25284 h 2.235523 l 1.079521,-4.33616 a 9.1414112,9.1414112 0 0 0 -2.247926,-1.91668 z m -3.183269,9.35601 c -2.095158,2.20702 -5.073905,3.56746 -8.562267,3.20084 l -0.202572,0.83665 a 9.1414112,9.1414112 0 0 0 7.22075,3.56412 9.1414112,9.1414112 0 0 0 6.955647,-3.22668 l -1.059884,-4.37493 z"
               id="path1694" />
            <path
               inkscape:connector-curvature="0"
               style="opacity:1;fill:#ffffff;fill-opacity:0.13777777;fill-rule:nonzero;stroke:none;stroke-width:0.60896647;stroke-linecap:round;stroke-linejoin:round;stroke-miterlimit:4;stroke-dasharray:none;stroke-dashoffset:0;stroke-opacity:1;paint-order:stroke fill markers"
               d="m -37.277052,168.68843 c -0.210671,-0.0124 -0.426761,0.0361 -0.623217,0.15244 -0.523652,0.31018 -0.695913,0.9822 -0.385507,1.50586 l 1.299146,2.19728 c 0.310177,0.52366 0.981682,0.6954 1.505335,0.38499 0.523649,-0.31018 0.695912,-0.98169 0.385506,-1.50534 l -1.298112,-2.19728 c -0.155001,-0.26179 -0.402986,-0.43585 -0.674894,-0.5054 h -5.3e-4 c -0.06786,-0.0173 -0.137686,-0.0283 -0.207739,-0.0325 z m 15.878101,5.3e-4 c -0.07007,0.004 -0.139872,0.0147 -0.20774,0.032 -0.27191,0.0697 -0.51938,0.2436 -0.674378,0.50539 l -1.298628,2.19729 c -0.310176,0.52365 -0.138123,1.19591 0.385506,1.50585 0.523423,0.31018 1.19516,0.13814 1.505334,-0.38551 l 0.928626,-1.57045 0.414446,-1.66605 c -0.09088,-0.18779 -0.23586,-0.35205 -0.429432,-0.46663 -0.196283,-0.11637 -0.413009,-0.16438 -0.623734,-0.15193 z m -7.938534,5.47408 a 9.1414112,9.1414112 0 0 0 -7.240384,3.57033 l 0.998388,4.01009 h 9.902755 c 0.919541,-1.94828 1.321102,-4.13569 1.066602,-6.25285 a 9.1414112,9.1414112 0 0 0 -4.727361,-1.32757 z m -15.716869,8.04292 c -0.608582,0 -1.100708,0.48903 -1.100708,1.09761 0,0.60858 0.492126,1.10123 1.100708,1.10123 h 2.550231 c 0.608582,0 1.101225,-0.49265 1.101225,-1.10123 0,-0.60858 -0.492643,-1.09761 -1.101225,-1.09761 z m 28.871621,0 c -0.608581,0 -1.101225,0.48903 -1.101225,1.09761 0,0.60858 0.492644,1.10123 1.101225,1.10123 h 2.550232 c 0.608582,0 1.100709,-0.49265 1.100709,-1.10123 0,-0.60858 -0.492127,-1.09761 -1.100709,-1.09761 z m -19.396748,2.64067 -0.775663,3.20084 c 3.488362,0.36662 6.467109,-0.99382 8.562267,-3.20084 z m 13.003857,8.66975 c -0.210669,-0.0124 -0.427276,0.0361 -0.623734,0.15245 -0.523653,0.31017 -0.695913,0.9822 -0.385506,1.50585 l 1.299662,2.19418 c 0.310174,0.52365 0.981967,0.6954 1.50585,0.38499 0.160666,-0.0952 0.284028,-0.22649 0.374655,-0.37465 l -0.469738,-1.93994 -0.819071,-1.38493 c -0.154813,-0.26194 -0.402283,-0.43592 -0.674378,-0.50539 -0.06802,-0.0174 -0.137514,-0.0284 -0.20774,-0.0326 z m -13.524238,5.3e-4 c -0.07023,0.004 -0.139716,0.0146 -0.20774,0.032 -0.272095,0.0696 -0.519289,0.24369 -0.674377,0.5054 l -1.298629,2.19728 c -0.310176,0.52365 -0.139293,1.19258 0.384473,1.50275 0.523653,0.31018 1.195905,0.13814 1.505851,-0.38551 l 1.299146,-2.19418 c 0.310173,-0.52365 0.138639,-1.19591 -0.38499,-1.50585 -0.196456,-0.11632 -0.413065,-0.16437 -0.623734,-0.15193 z"
               id="path1696" />
            <path
               style="opacity:1;fill:url(#radialGradient1820);fill-opacity:1;fill-rule:nonzero;stroke:none;stroke-width:2.3016057;stroke-linecap:round;stroke-linejoin:round;stroke-miterlimit:4;stroke-dasharray:none;stroke-dashoffset:0;stroke-opacity:1;paint-order:stroke fill markers"
               d="m 953.96484,60.5 c -0.17465,1.081111 -0.37277,2.199773 -0.66406,3.347656 -2.33848,9.21532 -4.66622,19.831117 -6.52734,30.058594 -1.8604,10.22347 -4.3315,21.91784 -13.73438,23.61719 -11.11456,2.00867 -27.15437,3.16732 -32.32422,-6.8086 -10.13951,-19.565439 -11.26269,-33.066329 -15.22656,-49.906246 -0.2128,0.118322 -0.42406,0.238285 -0.63672,0.357422 -0.80344,0.450004 -1.60717,0.899286 -2.40625,1.359375 l 14.61719,58.720699 h 45.87695 l 14.61719,-58.718746 c -0.7483,-0.431245 -1.49946,-0.854993 -2.25195,-1.277344 -0.44709,-0.250912 -0.89222,-0.502731 -1.33985,-0.75 z m -87.35937,12.085938 c -1.26022,0.888379 -2.49325,1.774593 -3.66016,2.652343 3.6754,7.277367 8.02655,14.553541 8.9336,20.484375 0.004,0.03024 0.0141,0.0615 0.0273,0.08984 7.46722,16.977114 11.39734,36.221694 3.57422,53.695314 -0.006,0.0151 -0.0118,0.0302 -0.0156,0.0469 -3.44854,10.71352 -7.85013,21.07759 -12.09765,31.51562 1.02,0.76114 2.08711,1.52764 3.17578,2.29688 7.3863,-18.29859 18.13867,-46.48636 18.13867,-55.73633 0,-9.22227 -10.6915,-36.958861 -18.07617,-55.044926 z m 106.78711,0.0059 c -7.38459,18.086201 -18.07227,45.817822 -18.07227,55.039062 0,9.24997 10.75237,37.43774 18.13867,55.73633 1.20408,-0.85033 2.3831,-1.69894 3.50196,-2.53907 -0.82854,-1.73359 -1.66521,-3.34787 -2.4336,-4.77343 -0.006,-0.008 0.0358,0.0456 0.0312,0.0293 -6.48587,-16.56914 -14.79297,-33.55393 -14.79297,-51.41015 v -0.0137 c 0,-17.72361 8.81331,-33.781361 16.46876,-50.019534 -0.91743,-0.679537 -1.87088,-1.363561 -2.8418,-2.048828 z m -76.33008,60.382812 -14.6543,60.48242 c 0.26336,0.15188 0.52512,0.30622 0.78907,0.45703 1.29946,0.74212 2.60346,1.47008 3.9082,2.18164 0.35272,-2.80416 0.0333,-5.88934 0.6875,-9.18945 2.04536,-10.3172 4.62366,-24.35028 7.83984,-35.56641 1.61433,-5.62975 3.38029,-11.34295 7.70703,-13.125 7.71612,-3.17805 27.22313,-5.94232 34.67969,-0.17578 8.62688,6.67155 11.21863,37.86547 13.09375,48.41016 0.58249,3.27556 1.33344,6.41862 2.37305,9.3164 1.0804,-0.59342 2.16009,-1.19259 3.23633,-1.80664 0.29179,-0.16648 0.58,-0.33807 0.87109,-0.50586 l -14.6543,-60.47851 z"
               transform="matrix(0.26458333,0,0,0.26458333,-272.92676,149.66376)"
               id="path1803"
               inkscape:connector-curvature="0"
               sodipodi:nodetypes="ccsccccccccccccccccccscccccccsscccccccccccccccccc" />
          </g>
        </g>
      </g>
      <path
         sodipodi:nodetypes="cccccccscccccsscccccscccccscssssccccccsccccccccccscccccsscccccscccccscssssccscsscsccccsccccccccscscccccscssssccscsscsccccscccccsscccccsccccccccccscccccccsccccssccccccscccccsscccccscccccccccccscscccc"
         inkscape:connector-curvature="0"
         id="rect1894-11"
         d="m 58.440877,249.91655 v 3.40031 h 8.705411 c 0.0019,-0.0925 0.0016,-0.18503 0.0047,-0.2775 0.01034,-0.3003 0.06698,-0.57983 0.170531,-0.83871 0.103553,-0.25888 0.248722,-0.48127 0.435116,-0.66766 0.191569,-0.18639 0.419624,-0.33156 0.68368,-0.43511 0.264052,-0.10873 0.564177,-0.16279 0.900719,-0.16279 0.388318,0 0.717269,0.0592 0.986504,0.17829 0.27441,0.11908 0.4968,0.2694 0.667658,0.45062 0.176037,0.17603 0.305249,0.36496 0.38809,0.56689 0.08284,0.20192 0.127114,0.38828 0.132292,0.55914 0,0.0466 -0.01802,0.0883 -0.05426,0.12454 -0.03106,0.0311 -0.07019,0.0465 -0.116787,0.0465 h -0.357084 c -0.04142,0 -0.0826,-0.0129 -0.124024,-0.0388 -0.04142,-0.0311 -0.06768,-0.0753 -0.07803,-0.13229 -0.03107,-0.12945 -0.0774,-0.25608 -0.139529,-0.38034 -0.05695,-0.12944 -0.142406,-0.24373 -0.256315,-0.3421 -0.108727,-0.0984 -0.24875,-0.17816 -0.419613,-0.2403 -0.170855,-0.0621 -0.380378,-0.0935 -0.628901,-0.0935 -0.460804,0 -0.815494,0.13488 -1.064017,0.40411 -0.243244,0.26394 -0.37247,0.61075 -0.388091,1.04024 v 5.3e-4 c -0.0038,0.085 -0.0032,0.15728 -0.0057,0.23823 h 4.649843 v -2.09444 c 0,-0.0569 0.02058,-0.10636 0.06201,-0.1478 0.04142,-0.0414 0.09084,-0.062 0.147793,-0.062 h 0.318329 c 0.05695,0 0.105857,0.0206 0.147277,0.062 0.04142,0.0414 0.06201,0.0908 0.06201,0.1478 v 2.09444 h 3.342949 c 0.0019,-0.0925 0.0016,-0.18496 0.0047,-0.2775 0.0052,-0.28995 0.0541,-0.56176 0.147278,-0.81545 0.09837,-0.25889 0.238397,-0.48127 0.419613,-0.66766 0.181213,-0.19157 0.403603,-0.3419 0.667657,-0.45062 0.264057,-0.11391 0.56727,-0.17054 0.90899,-0.17054 0.341717,0 0.644416,0.0566 0.90847,0.17054 0.26406,0.10872 0.486966,0.25905 0.668176,0.45062 0.181216,0.18639 0.318149,0.40877 0.411345,0.66766 0.09838,0.25369 0.150371,0.5255 0.155546,0.81545 0.0031,0.0925 0.0028,0.18497 0.0047,0.2775 h 0.922425 c 0.0019,-0.0925 0.0016,-0.18503 0.0047,-0.2775 0.01035,-0.3003 0.0675,-0.57983 0.171048,-0.83871 0.10355,-0.25888 0.248206,-0.48127 0.4346,-0.66766 0.191568,-0.18638 0.419623,-0.33156 0.683678,-0.43511 0.264059,-0.10873 0.564181,-0.16279 0.900721,-0.16279 0.388315,0 0.717269,0.0592 0.986504,0.17829 0.27441,0.11908 0.4968,0.2694 0.667657,0.45062 0.176038,0.17603 0.305766,0.36496 0.388607,0.56689 0.08284,0.20192 0.126598,0.38828 0.131776,0.55914 0,0.0466 -0.01802,0.0883 -0.05426,0.12454 -0.03106,0.0311 -0.06968,0.0465 -0.116271,0.0465 h -0.3576 c -0.04142,0 -0.0826,-0.0129 -0.124024,-0.0387 -0.04142,-0.0311 -0.06716,-0.0753 -0.07752,-0.13229 -0.03107,-0.12945 -0.07791,-0.25608 -0.140044,-0.38034 -0.05695,-0.12944 -0.142409,-0.24373 -0.256315,-0.3421 -0.108728,-0.0984 -0.248234,-0.17816 -0.419094,-0.2403 -0.17086,-0.0621 -0.380897,-0.0935 -0.62942,-0.0935 -0.460804,0 -0.815496,0.13488 -1.064017,0.40411 -0.243247,0.26394 -0.372472,0.61076 -0.388091,1.04025 v 5.2e-4 c -0.0038,0.085 -0.0033,0.15728 -0.0057,0.23823 h 4.649843 v -2.09496 c 0,-0.0569 0.02058,-0.10584 0.06201,-0.14728 0.04142,-0.0414 0.09084,-0.062 0.147793,-0.062 h 0.318328 c 0.05695,0 0.106374,0.0206 0.147794,0.062 0.04142,0.0414 0.06201,0.0903 0.06201,0.14728 v 2.09496 h 2.733683 v -2.09496 c 0,-0.0569 0.02059,-0.10584 0.06201,-0.14728 0.04142,-0.0414 0.09084,-0.062 0.147797,-0.062 h 0.318325 c 0.05695,0 0.106373,0.0206 0.147796,0.062 0.04142,0.0414 0.06201,0.0908 0.06201,0.1478 v 2.09444 h 9.160678 v -3.40031 z m 20.320722,1.71721 c -0.201924,0 -0.388278,0.0309 -0.559138,0.093 -0.165682,0.0569 -0.310854,0.14496 -0.435116,0.26406 -0.124261,0.11909 -0.222586,0.26941 -0.295074,0.45062 -0.07249,0.18121 -0.111093,0.39331 -0.116271,0.63665 -0.0038,0.0852 -0.0033,0.15763 -0.0057,0.23875 h 2.822564 c -0.0024,-0.0811 -0.0019,-0.15352 -0.0057,-0.23875 -0.01035,-0.24334 -0.05154,-0.45544 -0.124024,-0.63665 -0.06731,-0.18121 -0.163576,-0.33153 -0.287837,-0.45062 -0.124262,-0.11908 -0.271489,-0.20711 -0.442352,-0.26406 -0.165677,-0.0621 -0.349462,-0.093 -0.551386,-0.093 z m -20.320722,2.42517 v 3.40031 h 42.148333 v -3.40031 h -9.160684 v 2.18023 c 0,0.0569 -0.02058,0.10636 -0.06201,0.1478 -0.04142,0.0414 -0.09084,0.062 -0.147796,0.062 h -0.318326 c -0.05695,0 -0.106376,-0.0206 -0.147796,-0.062 -0.04142,-0.0414 -0.06201,-0.0908 -0.06201,-0.1478 v -2.18023 h -2.733683 v 2.18023 c 0,0.0569 -0.02059,0.10636 -0.06201,0.1478 -0.04142,0.0414 -0.09084,0.062 -0.147793,0.062 h -0.318328 c -0.05695,0 -0.106373,-0.018 -0.147794,-0.0543 -0.04142,-0.0414 -0.06201,-0.0934 -0.06201,-0.15555 v -2.18023 h -4.651912 c 0.0026,0.10804 0.0026,0.20826 0.0078,0.32401 0.01553,0.42974 0.144746,0.77929 0.388091,1.04852 0.248521,0.26406 0.603213,0.39636 1.064017,0.39636 0.248523,0 0.45856,-0.0314 0.62942,-0.0935 0.17086,-0.0621 0.310366,-0.14245 0.419094,-0.24082 0.113909,-0.0984 0.199364,-0.20957 0.256315,-0.33383 0.06213,-0.12944 0.108982,-0.25865 0.140044,-0.38809 0.01035,-0.0569 0.0361,-0.0986 0.07752,-0.12454 0.04142,-0.0311 0.0826,-0.0465 0.124024,-0.0465 h 0.3576 c 0.0466,0 0.08521,0.018 0.116271,0.0543 0.03625,0.0311 0.05426,0.0702 0.05426,0.11679 -0.0052,0.17086 -0.04896,0.35722 -0.131776,0.55914 -0.08284,0.20193 -0.212569,0.39343 -0.388607,0.57464 -0.170857,0.17604 -0.393247,0.32378 -0.667657,0.44287 -0.269235,0.11909 -0.598189,0.17828 -0.986504,0.17828 -0.33654,0 -0.636662,-0.0515 -0.900721,-0.15503 -0.264054,-0.10873 -0.492109,-0.25648 -0.683678,-0.44286 -0.186394,-0.1864 -0.33105,-0.40621 -0.4346,-0.65991 -0.103552,-0.25888 -0.160694,-0.54099 -0.171047,-0.84646 -0.0041,-0.12106 -0.0043,-0.24218 -0.0062,-0.36329 H 80.9114 c -0.0019,0.12088 -0.0021,0.24189 -0.0062,0.36277 -0.01035,0.28994 -0.06492,0.56485 -0.163295,0.82373 -0.0932,0.2537 -0.23013,0.47609 -0.411345,0.66766 -0.181216,0.19157 -0.404122,0.34189 -0.668177,0.45061 -0.258878,0.10874 -0.559003,0.16278 -0.900721,0.16278 -0.34172,0 -0.644932,-0.054 -0.908989,-0.16278 -0.258876,-0.10872 -0.478692,-0.25904 -0.659908,-0.45061 -0.181215,-0.19157 -0.321238,-0.41396 -0.41961,-0.66766 -0.0932,-0.25888 -0.144677,-0.53379 -0.15503,-0.82373 -0.0041,-0.12088 -0.0043,-0.24189 -0.0062,-0.36277 h -3.341399 v 1.69086 h 2.632917 c 0.05695,0 0.10637,0.0211 0.147793,0.0625 0.04142,0.0414 0.06201,0.0903 0.06201,0.14727 v 0.27957 c -2e-6,0.0569 -0.02058,0.10636 -0.06201,0.1478 -0.04142,0.0414 -0.09084,0.062 -0.147793,0.062 H 72.74291 c -0.05695,0 -0.106373,-0.0206 -0.147793,-0.062 -0.04142,-0.0414 -0.06201,-0.0908 -0.06201,-0.1478 v -2.18023 h -4.651912 c 0.0027,0.10804 0.0026,0.20826 0.0078,0.32401 0.01553,0.42974 0.144745,0.77929 0.388091,1.04852 0.248523,0.26406 0.603213,0.39636 1.064016,0.39636 0.248523,0 0.458047,-0.0314 0.628902,-0.0935 0.170862,-0.0621 0.310885,-0.14245 0.419613,-0.24082 0.113908,-0.0984 0.199361,-0.20957 0.256315,-0.33383 0.06213,-0.12944 0.108458,-0.25865 0.139528,-0.38809 0.01035,-0.0569 0.03661,-0.0986 0.07803,-0.12454 0.04142,-0.0311 0.0826,-0.0465 0.124023,-0.0465 h 0.357085 c 0.0466,0 0.08572,0.018 0.116787,0.0543 0.03624,0.0311 0.05426,0.0702 0.05426,0.11679 -0.0052,0.17086 -0.04947,0.35722 -0.132291,0.55914 -0.08284,0.20193 -0.212053,0.39343 -0.388091,0.57464 -0.170857,0.17604 -0.393248,0.32378 -0.667658,0.44287 -0.269234,0.11909 -0.598185,0.17828 -0.986504,0.17828 -0.336542,0 -0.636667,-0.0515 -0.900718,-0.15503 -0.264057,-0.10873 -0.492112,-0.25648 -0.683681,-0.44286 -0.186394,-0.1864 -0.331562,-0.40621 -0.435115,-0.65991 -0.10355,-0.25888 -0.160179,-0.54099 -0.170532,-0.84646 -0.0041,-0.12106 -0.0043,-0.24218 -0.0062,-0.36329 z m 18.907371,0 c 0.0026,0.10804 0.0026,0.20826 0.0078,0.32401 0.0052,0.24334 0.04381,0.45596 0.116271,0.63718 0.07249,0.18121 0.170813,0.33102 0.295074,0.4501 0.124262,0.11908 0.269434,0.20969 0.435116,0.27181 0.17086,0.0569 0.357214,0.0858 0.559138,0.0858 0.201925,0 0.38571,-0.0289 0.551387,-0.0858 0.170862,-0.0621 0.31809,-0.15273 0.442351,-0.27181 0.124262,-0.11908 0.22053,-0.26889 0.287838,-0.4501 0.07249,-0.18122 0.11367,-0.39384 0.124023,-0.63718 0.0051,-0.11575 0.0052,-0.21597 0.0078,-0.32401 z"
         style="opacity:1;fill:url(#linearGradient2141);fill-opacity:1;fill-rule:nonzero;stroke:none;stroke-width:0.40418147;stroke-linecap:round;stroke-linejoin:round;stroke-miterlimit:4;stroke-dasharray:none;stroke-dashoffset:0;stroke-opacity:0.11764706;paint-order:stroke markers fill" />
    </g>
    <image
       sodipodi:absref="/home/jake/code/cloch/img/help/hours.png"
       xlink:href="hours.png"
       y="335.92926"
       x="189.40201"
       id="image1028"
       style="stroke-width:1;image-rendering:optimizeQuality"
       preserveAspectRatio="none"
       height="131.94804"
       width="131.94804" />
    <path
       style="opacity:1;fill:url(#linearGradient1064);fill-opacity:1;fill-rule:nonzero;stroke:none;stroke-width:1.48845768;stroke-linecap:round;stroke-linejoin:round;stroke-miterlimit:4;stroke-dasharray:none;stroke-dashoffset:0;stroke-opacity:0.18468466;paint-order:normal"
       d="m 58.440874,308.74865 v 2.78742 H 100.5892 v -2.78742 z m 0,3.50779 v 2.78743 H 100.5892 v -2.78743 z"
       id="path1054"
       inkscape:connector-curvature="0" />
    <flowRoot
       xml:space="preserve"
       id="flowRoot1062"
       style="font-style:normal;font-weight:normal;font-size:40px;line-height:0.40000001;font-family:sans-serif;text-align:center;letter-spacing:0px;word-spacing:0px;text-anchor:middle;fill:#ffffff;fill-opacity:1;stroke:none;stroke-width:0.63593435"
       transform="matrix(0.28655784,0,0,0.28655784,-6.1455455,368.22921)"><flowRegion
         id="flowRegion1058"
         style="fill:#ffffff;fill-opacity:1;stroke-width:0.63593435"><rect
           id="rect1056"
           width="500.8075"
           height="73.159561"
           x="48.091908"
           y="-206.731"
           style="fill:#ffffff;fill-opacity:1;stroke-width:0.63593435" /></flowRegion><flowPara
         id="flowPara1060"
         style="font-style:normal;font-variant:normal;font-weight:normal;font-stretch:normal;font-size:27.10220337px;font-family:Rubik;-inkscape-font-specification:Rubik;fill:#ffffff;fill-opacity:1;stroke-width:0.63593435">CLOCH</flowPara></flowRoot>  </g>
</svg>
