<?xml version="1.0" encoding="UTF-8" standalone="no"?>
<svg
   xmlns:dc="http://purl.org/dc/elements/1.1/"
   xmlns:cc="http://creativecommons.org/ns#"
   xmlns:rdf="http://www.w3.org/1999/02/22-rdf-syntax-ns#"
   xmlns:svg="http://www.w3.org/2000/svg"
   xmlns="http://www.w3.org/2000/svg"
   xmlns:sodipodi="http://sodipodi.sourceforge.net/DTD/sodipodi-0.dtd"
   xmlns:inkscape="http://www.inkscape.org/namespaces/inkscape"
   width="500"
   height="500"
   version="1.1"
   viewBox="0 0 132.3 132.3"
   id="svg40"
   sodipodi:docname="cloch.svg"
   inkscape:version="0.92.5 (2060ec1f9f, 2020-04-08)"
   inkscape:export-filename="/home/jake/code/cloch/svg/example/hours.pngt"
   inkscape:export-xdpi="76.800003"
   inkscape:export-ydpi="76.800003">
  <defs
     id="defs44">
    <filter
       inkscape:collect="always"
       style="color-interpolation-filters:sRGB"
       id="filter1155"
       x="-0.013279014"
       width="1.026558"
       y="-0.24640968"
       height="1.4928194">
      <feGaussianBlur
         inkscape:collect="always"
         stdDeviation="0.42713247"
         id="feGaussianBlur1157" />
    </filter>
  </defs>
  <sodipodi:namedview
     pagecolor="#ffffff"
     bordercolor="#666666"
     borderopacity="1"
     objecttolerance="10"
     gridtolerance="10"
     guidetolerance="10"
     inkscape:pageopacity="0"
     inkscape:pageshadow="2"
     inkscape:window-width="640"
     inkscape:window-height="480"
     id="namedview42"
     showgrid="false"
     inkscape:zoom="0.472"
     inkscape:cx="24.8867"
     inkscape:cy="94.412267"
     inkscape:current-layer="svg40" />
  <metadata
     id="metadata2">
    <rdf:RDF>
      <cc:Work
         rdf:about="">
        <dc:format>image/svg+xml</dc:format>
        <dc:type
           rdf:resource="http://purl.org/dc/dcmitype/StillImage" />
        <dc:title></dc:title>
      </cc:Work>
    </rdf:RDF>
  </metadata>
  <g
     id="g1385">
    <path
       inkscape:connector-curvature="0"
       style="fill:#ff3c6d;fill-opacity:1;paint-order:stroke fill"
       d="m 66.145,9.4405 c 10.49,0 43.86,19.26 49.1,28.35 5.244,9.084 5.244,47.61 -1e-5,56.7 -5.244,9.084 -38.61,28.35 -49.1,28.35 -10.49,0 -43.86,-19.26 -49.1,-28.35 -5.244,-9.084 -5.244,-47.61 1e-6,-56.7 5.244,-9.084 38.61,-28.35 49.1,-28.35 z"
       id="backgroundhx" />
    <g
       transform="translate(-0.005,-0.0095)"
       style="fill-opacity:0.20369999"
       id="minutes_angle">
      <path
         inkscape:connector-curvature="0"
         style="fill:#cb3057;fill-opacity:1;paint-order:stroke fill"
         d="m 66.15,9.449 c -5.244,0 -16.21,4.816 -26.52,10.77 8.497,-4.906 44.54,-4.906 53.03,0 C 82.35,14.267 71.39,9.449 66.14,9.449 Z"
         id="minAng_top" />
      <path
         inkscape:connector-curvature="0"
         style="paint-order:stroke fill"
         d="m 92.66,20.22 c 8.497,4.906 26.52,36.12 26.52,45.93 0,-11.9 -1.311,-23.81 -3.933,-28.35 -2.622,-4.542 -12.28,-11.63 -22.58,-17.58 z"
         id="minAng_topR" />
      <path
         inkscape:connector-curvature="0"
         style="paint-order:stroke fill"
         d="m 119.2,66.15 c 0,9.811 -18.02,41.02 -26.52,45.93 10.31,-5.952 19.96,-13.04 22.58,-17.58 2.622,-4.542 3.933,-16.44 3.933,-28.35 z"
         id="minAng_bottomR" />
      <path
         inkscape:connector-curvature="0"
         style="paint-order:stroke fill"
         d="m 92.66,112.1 c -8.497,4.906 -44.54,4.906 -53.03,0 10.31,5.952 21.27,10.77 26.52,10.77 5.244,0 16.21,-4.816 26.52,-10.77 z"
         id="minAng_bottom" />
      <path
         inkscape:connector-curvature="0"
         style="paint-order:stroke fill"
         d="M 39.63,112.1 C 31.133,107.194 13.11,75.98 13.11,66.17 c 0,11.9 1.311,23.81 3.933,28.35 2.622,4.542 12.28,11.63 22.58,17.58 z"
         id="minAng_bottomL" />
      <path
         inkscape:connector-curvature="0"
         style="paint-order:stroke fill"
         d="M 13.11,66.15 C 13.11,56.339 31.13,25.13 39.63,20.22 29.32,26.172 19.67,33.26 17.05,37.8 14.428,42.342 13.117,54.24 13.117,66.15 Z"
         id="minAng_topL" />
    </g>
    <g
       transform="translate(-0.005,-0.0095)"
       style="fill:#0b0808;fill-opacity:0.11760003"
       id="minutes_middle">
      <path
         inkscape:connector-curvature="0"
         style="paint-order:stroke fill"
         d="m 119.2,66.15 c 0,-4.906 -4.505,-15.16 -10.07,-24.8 4.589,7.948 4.589,41.66 0,49.61 5.567,-9.642 10.07,-19.9 10.07,-24.8 z"
         id="minMid_right" />
      <path
         inkscape:connector-curvature="0"
         style="paint-order:stroke fill"
         d="m 109.1,90.95 c -4.589,7.948 -33.78,24.8 -42.96,24.8 11.13,0 22.27,-1.226 26.52,-3.679 4.248,-2.453 10.88,-11.48 16.44,-21.12 z"
         id="minMid_rightB" />
      <path
         inkscape:connector-curvature="0"
         style="paint-order:stroke fill"
         d="m 66.15,115.8 c -9.177,0 -38.37,-16.86 -42.96,-24.8 5.567,9.642 12.2,18.67 16.44,21.12 4.248,2.453 15.38,3.679 26.52,3.679 z"
         id="minMid_leftB" />
      <path
         inkscape:connector-curvature="0"
         style="paint-order:stroke fill"
         d="m 23.18,90.95 c -4.589,-7.948 -4.589,-41.66 0,-49.61 -5.567,9.642 -10.07,19.9 -10.07,24.8 0,4.906 4.505,15.16 10.07,24.8 z"
         id="minMid_left" />
      <path
         inkscape:connector-curvature="0"
         style="fill:#e23560;fill-opacity:1;paint-order:stroke fill"
         d="m 23.18,41.34 c 4.589,-7.948 33.78,-24.8 42.96,-24.8 -11.13,0 -22.27,1.226 -26.52,3.679 -4.248,2.453 -10.88,11.48 -16.44,21.12 z"
         id="minMId_leftT" />
      <path
         inkscape:connector-curvature="0"
         style="fill:#e23560;fill-opacity:1;paint-order:stroke fill"
         d="m 66.15,16.54 c 9.177,0 38.37,16.86 42.96,24.8 C 103.543,31.698 96.91,22.67 92.67,20.22 88.422,17.767 77.29,16.541 66.15,16.541 Z"
         id="minMid_rightT" />
    </g>
    <g
       transform="translate(-0.005,-0.0095)"
       id="cubex">
      <path
         inkscape:connector-curvature="0"
         style="fill:#000000;fill-opacity:0.04313725;paint-order:stroke fill"
         d="m 66.15,37.76 c -5.301,0 -22.04,9.908 -24.7,14.5 2.111,2.721 20.68,13.45 24.38,14.12 0.0598,0.0108 0.116,0.0188 0.1679,0.0243 0.052,0.005 0.0999,0.008 0.1437,0.008 0.0438,0 0.0917,-0.003 0.1437,-0.008 0.0519,-0.005 0.1081,-0.0135 0.1679,-0.0243 3.708,-0.6682 22.27,-11.4 24.38,-14.12 -2.65,-4.591 -19.39,-14.5 -24.7,-14.5 z"
         id="cubex_top" />
      <path
         inkscape:connector-curvature="0"
         style="fill:#000000;fill-opacity:0.06222223;paint-order:stroke fill"
         d="m 41.45,52.26 c -2.474,4.995 -2.428,23.61 0.1447,28.06 2.622,4.542 19.31,14.17 24.55,14.17 V 66.41 c -2.804,0 -22.52,-11.35 -24.7,-14.16 z"
         id="cubex_left" />
      <path
         inkscape:connector-curvature="0"
         style="fill:#000000;fill-opacity:0.10222222;stroke-opacity:0;paint-order:stroke fill"
         d="M 90.84,52.26 C 88.662,55.068 68.95,66.42 66.14,66.42 V 94.5 c 5.244,0 21.93,-9.632 24.55,-14.17 2.572,-4.456 2.619,-23.07 0.1447,-28.06 z"
         id="cubex_right" />
    </g>
    <g
       transform="translate(-0.005,37.0345)"
       id="sunmoon_indicator">
      <g
         style="fill:#ffffff"
         transform="matrix(0.8916,0,0,0.8916,41,38.7)"
         id="sun">
        <path
           inkscape:connector-curvature="0"
           id="path23"
           d="M 66.12,4.72 A 3.961,3.961 0 0 0 62.159,8.681 3.961,3.961 0 0 0 66.12,12.643 3.961,3.961 0 0 0 70.081,8.681 3.961,3.961 0 0 0 66.12,4.72 Z" />
        <path
           inkscape:connector-curvature="0"
           id="path25"
           d="m 59.31,8.205 c -0.2637,0 -0.4771,0.212 -0.4771,0.4757 0,0.2637 0.2134,0.4771 0.4771,0.4771 h 1.105 c 0.2637,0 0.4771,-0.2134 0.4771,-0.4771 0,-0.2637 -0.2134,-0.4757 -0.4771,-0.4757 z" />
        <path
           inkscape:connector-curvature="0"
           id="path27"
           d="m 71.82,8.205 c -0.2637,0 -0.4771,0.212 -0.4771,0.4757 0,0.2637 0.2134,0.4771 0.4771,0.4771 h 1.105 c 0.2637,0 0.4771,-0.2134 0.4771,-0.4771 0,-0.2637 -0.2134,-0.4757 -0.4771,-0.4757 z" />
        <path
           inkscape:connector-curvature="0"
           id="path29"
           d="m 69.47,2.362 c -0.1179,0.03018 -0.2251,0.1055 -0.2923,0.219 l -0.5628,0.952 c -0.1344,0.2269 -0.05989,0.5181 0.167,0.6524 0.2268,0.1344 0.518,0.0599 0.6524,-0.167 l 0.5628,-0.952 C 70.1315,2.8395 70.05699,2.5483 69.8301,2.414 69.7167,2.34677 69.5878,2.33182 69.4699,2.36204 Z" />
        <path
           inkscape:connector-curvature="0"
           id="path31"
           d="m 63.1,13.12 c -0.1179,0.03018 -0.2251,0.1056 -0.2923,0.219 l -0.5628,0.952 c -0.1344,0.2269 -0.06025,0.5167 0.1667,0.6511 0.2269,0.1344 0.5181,0.0599 0.6524,-0.167 l 0.5631,-0.9507 c 0.1344,-0.2269 0.05989,-0.5181 -0.167,-0.6524 -0.1135,-0.0672 -0.2423,-0.08217 -0.3602,-0.05195 z" />
        <path
           inkscape:connector-curvature="0"
           id="path33"
           d="m 62.77,2.362 c -0.1179,-0.03018 -0.2467,-0.01524 -0.3602,0.05197 -0.2269,0.1344 -0.3015,0.4255 -0.167,0.6524 l 0.5628,0.952 c 0.1344,0.2269 0.4255,0.3015 0.6524,0.167 0.2269,-0.1344 0.3015,-0.4255 0.167,-0.6524 l -0.5628,-0.952 c -0.0672,-0.1135 -0.1744,-0.1889 -0.2923,-0.219 z" />
        <path
           inkscape:connector-curvature="0"
           id="path35"
           d="m 69.14,13.12 c -0.1179,-0.03018 -0.2467,-0.01526 -0.3602,0.05197 -0.2269,0.1344 -0.3015,0.4255 -0.167,0.6524 l 0.5631,0.9507 c 0.1344,0.2269 0.4255,0.3015 0.6525,0.167 0.2268,-0.1344 0.3011,-0.4242 0.1667,-0.6511 l -0.5628,-0.952 c -0.06708,-0.1135 -0.1744,-0.1889 -0.2923,-0.219 z" />
      </g>
      <path
         inkscape:connector-curvature="0"
         style="opacity:0.53899997;fill:#ff3c6d;fill-opacity:1;stroke-width:0.89160001"
         d="m 100,39.5 c -3.972,-4.92e-4 -6.924,2.683 -6.925,6.655 -4.91e-4,3.973 2.414,7.193 6.387,7.193 3.972,-1.77e-4 7.193,-3.22 7.192,-7.193 -1.8e-4,-3.972 -2.683,-6.655 -6.655,-6.655 z m 1.513,2.902 c 1.373,0.7498 2.226,2.189 2.226,3.753 7e-5,2.362 -1.915,4.277 -4.277,4.277 -1.75,-7.87e-4 -3.324,-1.068 -3.971,-2.694 4.204,2.119 7.313,-2.243 6.022,-5.336 z"
         id="moon_mask" />
    </g>
  </g>
  <g
     id="g1232">
    <rect
       ry="9.8104124"
       rx="9.8104124"
       y="53.333721"
       x="143.15411"
       height="27.749363"
       width="93.338768"
       id="rect867"
       style="opacity:1;vector-effect:none;fill:#ff3c6d;fill-opacity:1;fill-rule:nonzero;stroke:none;stroke-width:10.5836668;stroke-linecap:butt;stroke-linejoin:miter;stroke-miterlimit:4;stroke-dasharray:none;stroke-dashoffset:6.08506203;stroke-opacity:1;paint-order:stroke markers fill" />
    <g
       id="g887"
       transform="translate(58.207,17.6092)">
      <g
         id="g883"
         transform="matrix(0.8916,0,0,0.8916,41,38.7)"
         style="fill:#ffffff">
        <path
           d="M 66.12,4.72 A 3.961,3.961 0 0 0 62.159,8.681 3.961,3.961 0 0 0 66.12,12.643 3.961,3.961 0 0 0 70.081,8.681 3.961,3.961 0 0 0 66.12,4.72 Z"
           id="path869"
           inkscape:connector-curvature="0" />
        <path
           d="m 59.31,8.205 c -0.2637,0 -0.4771,0.212 -0.4771,0.4757 0,0.2637 0.2134,0.4771 0.4771,0.4771 h 1.105 c 0.2637,0 0.4771,-0.2134 0.4771,-0.4771 0,-0.2637 -0.2134,-0.4757 -0.4771,-0.4757 z"
           id="path871"
           inkscape:connector-curvature="0" />
        <path
           d="m 71.82,8.205 c -0.2637,0 -0.4771,0.212 -0.4771,0.4757 0,0.2637 0.2134,0.4771 0.4771,0.4771 h 1.105 c 0.2637,0 0.4771,-0.2134 0.4771,-0.4771 0,-0.2637 -0.2134,-0.4757 -0.4771,-0.4757 z"
           id="path873"
           inkscape:connector-curvature="0" />
        <path
           d="m 69.47,2.362 c -0.1179,0.03018 -0.2251,0.1055 -0.2923,0.219 l -0.5628,0.952 c -0.1344,0.2269 -0.05989,0.5181 0.167,0.6524 0.2268,0.1344 0.518,0.0599 0.6524,-0.167 l 0.5628,-0.952 C 70.1315,2.8395 70.05699,2.5483 69.8301,2.414 69.7167,2.34677 69.5878,2.33182 69.4699,2.36204 Z"
           id="path875"
           inkscape:connector-curvature="0" />
        <path
           d="m 63.1,13.12 c -0.1179,0.03018 -0.2251,0.1056 -0.2923,0.219 l -0.5628,0.952 c -0.1344,0.2269 -0.06025,0.5167 0.1667,0.6511 0.2269,0.1344 0.5181,0.0599 0.6524,-0.167 l 0.5631,-0.9507 c 0.1344,-0.2269 0.05989,-0.5181 -0.167,-0.6524 -0.1135,-0.0672 -0.2423,-0.08217 -0.3602,-0.05195 z"
           id="path877"
           inkscape:connector-curvature="0" />
        <path
           d="m 62.77,2.362 c -0.1179,-0.03018 -0.2467,-0.01524 -0.3602,0.05197 -0.2269,0.1344 -0.3015,0.4255 -0.167,0.6524 l 0.5628,0.952 c 0.1344,0.2269 0.4255,0.3015 0.6524,0.167 0.2269,-0.1344 0.3015,-0.4255 0.167,-0.6524 l -0.5628,-0.952 c -0.0672,-0.1135 -0.1744,-0.1889 -0.2923,-0.219 z"
           id="path879"
           inkscape:connector-curvature="0" />
        <path
           d="m 69.14,13.12 c -0.1179,-0.03018 -0.2467,-0.01526 -0.3602,0.05197 -0.2269,0.1344 -0.3015,0.4255 -0.167,0.6524 l 0.5631,0.9507 c 0.1344,0.2269 0.4255,0.3015 0.6525,0.167 0.2268,-0.1344 0.3011,-0.4242 0.1667,-0.6511 l -0.5628,-0.952 c -0.06708,-0.1135 -0.1744,-0.1889 -0.2923,-0.219 z"
           id="path881"
           inkscape:connector-curvature="0" />
      </g>
      <path
         id="path885"
         d="m 100,39.5 c -3.972,-4.92e-4 -6.924,2.683 -6.925,6.655 -4.91e-4,3.973 2.414,7.193 6.387,7.193 3.972,-1.77e-4 7.193,-3.22 7.192,-7.193 -1.8e-4,-3.972 -2.683,-6.655 -6.655,-6.655 z m 1.513,2.902 c 1.373,0.7498 2.226,2.189 2.226,3.753 7e-5,2.362 -1.915,4.277 -4.277,4.277 -1.75,-7.87e-4 -3.324,-1.068 -3.971,-2.694 4.204,2.119 7.313,-2.243 6.022,-5.336 z"
         style="opacity:0.6;fill:#ff3c6d;fill-opacity:1;stroke-width:0.89160001"
         inkscape:connector-curvature="0" />
    </g>
    <g
       transform="translate(79.375,17.6092)"
       id="g907">
      <g
         style="fill:#ffffff"
         transform="matrix(0.8916,0,0,0.8916,41,38.7)"
         id="g903">
        <path
           inkscape:connector-curvature="0"
           id="path889"
           d="M 66.12,4.72 A 3.961,3.961 0 0 0 62.159,8.681 3.961,3.961 0 0 0 66.12,12.643 3.961,3.961 0 0 0 70.081,8.681 3.961,3.961 0 0 0 66.12,4.72 Z" />
        <path
           inkscape:connector-curvature="0"
           id="path891"
           d="m 59.31,8.205 c -0.2637,0 -0.4771,0.212 -0.4771,0.4757 0,0.2637 0.2134,0.4771 0.4771,0.4771 h 1.105 c 0.2637,0 0.4771,-0.2134 0.4771,-0.4771 0,-0.2637 -0.2134,-0.4757 -0.4771,-0.4757 z" />
        <path
           inkscape:connector-curvature="0"
           id="path893"
           d="m 71.82,8.205 c -0.2637,0 -0.4771,0.212 -0.4771,0.4757 0,0.2637 0.2134,0.4771 0.4771,0.4771 h 1.105 c 0.2637,0 0.4771,-0.2134 0.4771,-0.4771 0,-0.2637 -0.2134,-0.4757 -0.4771,-0.4757 z" />
        <path
           inkscape:connector-curvature="0"
           id="path895"
           d="m 69.47,2.362 c -0.1179,0.03018 -0.2251,0.1055 -0.2923,0.219 l -0.5628,0.952 c -0.1344,0.2269 -0.05989,0.5181 0.167,0.6524 0.2268,0.1344 0.518,0.0599 0.6524,-0.167 l 0.5628,-0.952 C 70.1315,2.8395 70.05699,2.5483 69.8301,2.414 69.7167,2.34677 69.5878,2.33182 69.4699,2.36204 Z" />
        <path
           inkscape:connector-curvature="0"
           id="path897"
           d="m 63.1,13.12 c -0.1179,0.03018 -0.2251,0.1056 -0.2923,0.219 l -0.5628,0.952 c -0.1344,0.2269 -0.06025,0.5167 0.1667,0.6511 0.2269,0.1344 0.5181,0.0599 0.6524,-0.167 l 0.5631,-0.9507 c 0.1344,-0.2269 0.05989,-0.5181 -0.167,-0.6524 -0.1135,-0.0672 -0.2423,-0.08217 -0.3602,-0.05195 z" />
        <path
           inkscape:connector-curvature="0"
           id="path899"
           d="m 62.77,2.362 c -0.1179,-0.03018 -0.2467,-0.01524 -0.3602,0.05197 -0.2269,0.1344 -0.3015,0.4255 -0.167,0.6524 l 0.5628,0.952 c 0.1344,0.2269 0.4255,0.3015 0.6524,0.167 0.2269,-0.1344 0.3015,-0.4255 0.167,-0.6524 l -0.5628,-0.952 c -0.0672,-0.1135 -0.1744,-0.1889 -0.2923,-0.219 z" />
        <path
           inkscape:connector-curvature="0"
           id="path901"
           d="m 69.14,13.12 c -0.1179,-0.03018 -0.2467,-0.01526 -0.3602,0.05197 -0.2269,0.1344 -0.3015,0.4255 -0.167,0.6524 l 0.5631,0.9507 c 0.1344,0.2269 0.4255,0.3015 0.6525,0.167 0.2268,-0.1344 0.3011,-0.4242 0.1667,-0.6511 l -0.5628,-0.952 c -0.06708,-0.1135 -0.1744,-0.1889 -0.2923,-0.219 z" />
      </g>
      <path
         inkscape:connector-curvature="0"
         style="opacity:0;fill:#ff3c6d;fill-opacity:1;stroke-width:0.89160001"
         d="m 100,39.5 c -3.972,-4.92e-4 -6.924,2.683 -6.925,6.655 -4.91e-4,3.973 2.414,7.193 6.387,7.193 3.972,-1.77e-4 7.193,-3.22 7.192,-7.193 -1.8e-4,-3.972 -2.683,-6.655 -6.655,-6.655 z m 1.513,2.902 c 1.373,0.7498 2.226,2.189 2.226,3.753 7e-5,2.362 -1.915,4.277 -4.277,4.277 -1.75,-7.87e-4 -3.324,-1.068 -3.971,-2.694 4.204,2.119 7.313,-2.243 6.022,-5.336 z"
         id="path905" />
    </g>
    <g
       id="g927"
       transform="translate(100.543,17.6092)">
      <g
         id="g923"
         transform="matrix(0.8916,0,0,0.8916,41,38.7)"
         style="fill:#ffffff">
        <path
           d="M 66.12,4.72 A 3.961,3.961 0 0 0 62.159,8.681 3.961,3.961 0 0 0 66.12,12.643 3.961,3.961 0 0 0 70.081,8.681 3.961,3.961 0 0 0 66.12,4.72 Z"
           id="path909"
           inkscape:connector-curvature="0" />
        <path
           d="m 59.31,8.205 c -0.2637,0 -0.4771,0.212 -0.4771,0.4757 0,0.2637 0.2134,0.4771 0.4771,0.4771 h 1.105 c 0.2637,0 0.4771,-0.2134 0.4771,-0.4771 0,-0.2637 -0.2134,-0.4757 -0.4771,-0.4757 z"
           id="path911"
           inkscape:connector-curvature="0" />
        <path
           d="m 71.82,8.205 c -0.2637,0 -0.4771,0.212 -0.4771,0.4757 0,0.2637 0.2134,0.4771 0.4771,0.4771 h 1.105 c 0.2637,0 0.4771,-0.2134 0.4771,-0.4771 0,-0.2637 -0.2134,-0.4757 -0.4771,-0.4757 z"
           id="path913"
           inkscape:connector-curvature="0" />
        <path
           d="m 69.47,2.362 c -0.1179,0.03018 -0.2251,0.1055 -0.2923,0.219 l -0.5628,0.952 c -0.1344,0.2269 -0.05989,0.5181 0.167,0.6524 0.2268,0.1344 0.518,0.0599 0.6524,-0.167 l 0.5628,-0.952 C 70.1315,2.8395 70.05699,2.5483 69.8301,2.414 69.7167,2.34677 69.5878,2.33182 69.4699,2.36204 Z"
           id="path915"
           inkscape:connector-curvature="0" />
        <path
           d="m 63.1,13.12 c -0.1179,0.03018 -0.2251,0.1056 -0.2923,0.219 l -0.5628,0.952 c -0.1344,0.2269 -0.06025,0.5167 0.1667,0.6511 0.2269,0.1344 0.5181,0.0599 0.6524,-0.167 l 0.5631,-0.9507 c 0.1344,-0.2269 0.05989,-0.5181 -0.167,-0.6524 -0.1135,-0.0672 -0.2423,-0.08217 -0.3602,-0.05195 z"
           id="path917"
           inkscape:connector-curvature="0" />
        <path
           d="m 62.77,2.362 c -0.1179,-0.03018 -0.2467,-0.01524 -0.3602,0.05197 -0.2269,0.1344 -0.3015,0.4255 -0.167,0.6524 l 0.5628,0.952 c 0.1344,0.2269 0.4255,0.3015 0.6524,0.167 0.2269,-0.1344 0.3015,-0.4255 0.167,-0.6524 l -0.5628,-0.952 c -0.0672,-0.1135 -0.1744,-0.1889 -0.2923,-0.219 z"
           id="path919"
           inkscape:connector-curvature="0" />
        <path
           d="m 69.14,13.12 c -0.1179,-0.03018 -0.2467,-0.01526 -0.3602,0.05197 -0.2269,0.1344 -0.3015,0.4255 -0.167,0.6524 l 0.5631,0.9507 c 0.1344,0.2269 0.4255,0.3015 0.6525,0.167 0.2268,-0.1344 0.3011,-0.4242 0.1667,-0.6511 l -0.5628,-0.952 c -0.06708,-0.1135 -0.1744,-0.1889 -0.2923,-0.219 z"
           id="path921"
           inkscape:connector-curvature="0" />
      </g>
      <path
         id="path925"
         d="m 100,39.5 c -3.972,-4.92e-4 -6.924,2.683 -6.925,6.655 -4.91e-4,3.973 2.414,7.193 6.387,7.193 3.972,-1.77e-4 7.193,-3.22 7.192,-7.193 -1.8e-4,-3.972 -2.683,-6.655 -6.655,-6.655 z m 1.513,2.902 c 1.373,0.7498 2.226,2.189 2.226,3.753 7e-5,2.362 -1.915,4.277 -4.277,4.277 -1.75,-7.87e-4 -3.324,-1.068 -3.971,-2.694 4.204,2.119 7.313,-2.243 6.022,-5.336 z"
         style="opacity:0.4;fill:#ff3c6d;fill-opacity:1;stroke-width:0.89160001"
         inkscape:connector-curvature="0" />
    </g>
    <g
       transform="translate(121.711,17.6092)"
       id="g947">
      <g
         style="fill:#ffffff"
         transform="matrix(0.8916,0,0,0.8916,41,38.7)"
         id="g943">
        <path
           inkscape:connector-curvature="0"
           id="path929"
           d="M 66.12,4.72 A 3.961,3.961 0 0 0 62.159,8.681 3.961,3.961 0 0 0 66.12,12.643 3.961,3.961 0 0 0 70.081,8.681 3.961,3.961 0 0 0 66.12,4.72 Z" />
        <path
           inkscape:connector-curvature="0"
           id="path931"
           d="m 59.31,8.205 c -0.2637,0 -0.4771,0.212 -0.4771,0.4757 0,0.2637 0.2134,0.4771 0.4771,0.4771 h 1.105 c 0.2637,0 0.4771,-0.2134 0.4771,-0.4771 0,-0.2637 -0.2134,-0.4757 -0.4771,-0.4757 z" />
        <path
           inkscape:connector-curvature="0"
           id="path933"
           d="m 71.82,8.205 c -0.2637,0 -0.4771,0.212 -0.4771,0.4757 0,0.2637 0.2134,0.4771 0.4771,0.4771 h 1.105 c 0.2637,0 0.4771,-0.2134 0.4771,-0.4771 0,-0.2637 -0.2134,-0.4757 -0.4771,-0.4757 z" />
        <path
           inkscape:connector-curvature="0"
           id="path935"
           d="m 69.47,2.362 c -0.1179,0.03018 -0.2251,0.1055 -0.2923,0.219 l -0.5628,0.952 c -0.1344,0.2269 -0.05989,0.5181 0.167,0.6524 0.2268,0.1344 0.518,0.0599 0.6524,-0.167 l 0.5628,-0.952 C 70.1315,2.8395 70.05699,2.5483 69.8301,2.414 69.7167,2.34677 69.5878,2.33182 69.4699,2.36204 Z" />
        <path
           inkscape:connector-curvature="0"
           id="path937"
           d="m 63.1,13.12 c -0.1179,0.03018 -0.2251,0.1056 -0.2923,0.219 l -0.5628,0.952 c -0.1344,0.2269 -0.06025,0.5167 0.1667,0.6511 0.2269,0.1344 0.5181,0.0599 0.6524,-0.167 l 0.5631,-0.9507 c 0.1344,-0.2269 0.05989,-0.5181 -0.167,-0.6524 -0.1135,-0.0672 -0.2423,-0.08217 -0.3602,-0.05195 z" />
        <path
           inkscape:connector-curvature="0"
           id="path939"
           d="m 62.77,2.362 c -0.1179,-0.03018 -0.2467,-0.01524 -0.3602,0.05197 -0.2269,0.1344 -0.3015,0.4255 -0.167,0.6524 l 0.5628,0.952 c 0.1344,0.2269 0.4255,0.3015 0.6524,0.167 0.2269,-0.1344 0.3015,-0.4255 0.167,-0.6524 l -0.5628,-0.952 c -0.0672,-0.1135 -0.1744,-0.1889 -0.2923,-0.219 z" />
        <path
           inkscape:connector-curvature="0"
           id="path941"
           d="m 69.14,13.12 c -0.1179,-0.03018 -0.2467,-0.01526 -0.3602,0.05197 -0.2269,0.1344 -0.3015,0.4255 -0.167,0.6524 l 0.5631,0.9507 c 0.1344,0.2269 0.4255,0.3015 0.6525,0.167 0.2268,-0.1344 0.3011,-0.4242 0.1667,-0.6511 l -0.5628,-0.952 c -0.06708,-0.1135 -0.1744,-0.1889 -0.2923,-0.219 z" />
      </g>
      <path
         inkscape:connector-curvature="0"
         style="opacity:1;fill:#ff3c6d;fill-opacity:1;stroke-width:0.89160001"
         d="m 100,39.5 c -3.972,-4.92e-4 -6.924,2.683 -6.925,6.655 -4.91e-4,3.973 2.414,7.193 6.387,7.193 3.972,-1.77e-4 7.193,-3.22 7.192,-7.193 -1.8e-4,-3.972 -2.683,-6.655 -6.655,-6.655 z m 1.513,2.902 c 1.373,0.7498 2.226,2.189 2.226,3.753 7e-5,2.362 -1.915,4.277 -4.277,4.277 -1.75,-7.87e-4 -3.324,-1.068 -3.971,-2.694 4.204,2.119 7.313,-2.243 6.022,-5.336 z"
         id="path945" />
    </g>
    <g
       style="filter:url(#filter1155);opacity:0.112"
       id="g1085">
      <text
         id="text1063"
         y="77.297409"
         x="158.20415"
         style="font-style:normal;font-variant:normal;font-weight:normal;font-stretch:normal;font-size:5.64480019px;line-height:1.25;font-family:Sniglet;-inkscape-font-specification:Sniglet;text-align:center;letter-spacing:0px;word-spacing:0px;text-anchor:middle;fill:none;fill-opacity:1;stroke:#000000;stroke-width:0.44982001;stroke-miterlimit:4;stroke-dasharray:none;stroke-opacity:1"
         xml:space="preserve"><tspan
           style="font-style:normal;font-variant:normal;font-weight:normal;font-stretch:normal;font-family:Sniglet;-inkscape-font-specification:Sniglet;text-align:center;text-anchor:middle;fill:none;fill-opacity:1;stroke:#000000;stroke-width:0.44982001;stroke-miterlimit:4;stroke-dasharray:none;stroke-opacity:1"
           y="77.297409"
           x="158.20415"
           id="tspan1061"
           sodipodi:role="line">0 - 5</tspan></text>
      <text
         xml:space="preserve"
         style="font-style:normal;font-variant:normal;font-weight:normal;font-stretch:normal;font-size:5.64480019px;line-height:1.25;font-family:Sniglet;-inkscape-font-specification:Sniglet;text-align:center;letter-spacing:0px;word-spacing:0px;text-anchor:middle;fill:none;fill-opacity:1;stroke:#000000;stroke-width:0.44982001;stroke-miterlimit:4;stroke-dasharray:none;stroke-opacity:1"
         x="179.37218"
         y="77.297409"
         id="text1067"><tspan
           sodipodi:role="line"
           id="tspan1065"
           x="179.37218"
           y="77.297409"
           style="font-style:normal;font-variant:normal;font-weight:normal;font-stretch:normal;font-family:Sniglet;-inkscape-font-specification:Sniglet;text-align:center;text-anchor:middle;fill:none;fill-opacity:1;stroke:#000000;stroke-width:0.44982001;stroke-miterlimit:4;stroke-dasharray:none;stroke-opacity:1">6 - 11</tspan></text>
      <text
         id="text1071"
         y="77.297409"
         x="200.54021"
         style="font-style:normal;font-variant:normal;font-weight:normal;font-stretch:normal;font-size:5.64480019px;line-height:1.25;font-family:Sniglet;-inkscape-font-specification:Sniglet;text-align:center;letter-spacing:0px;word-spacing:0px;text-anchor:middle;fill:none;fill-opacity:1;stroke:#000000;stroke-width:0.44982001;stroke-miterlimit:4;stroke-dasharray:none;stroke-opacity:1"
         xml:space="preserve"><tspan
           style="font-style:normal;font-variant:normal;font-weight:normal;font-stretch:normal;font-family:Sniglet;-inkscape-font-specification:Sniglet;text-align:center;text-anchor:middle;fill:none;fill-opacity:1;stroke:#000000;stroke-width:0.44982001;stroke-miterlimit:4;stroke-dasharray:none;stroke-opacity:1"
           y="77.297409"
           x="200.54021"
           id="tspan1069"
           sodipodi:role="line">12 - 17</tspan></text>
      <text
         xml:space="preserve"
         style="font-style:normal;font-variant:normal;font-weight:normal;font-stretch:normal;font-size:5.64480019px;line-height:1.25;font-family:Sniglet;-inkscape-font-specification:Sniglet;text-align:center;letter-spacing:0px;word-spacing:0px;text-anchor:middle;fill:none;fill-opacity:1;stroke:#000000;stroke-width:0.44982001;stroke-miterlimit:4;stroke-dasharray:none;stroke-opacity:1"
         x="221.70824"
         y="77.297409"
         id="text1075"><tspan
           sodipodi:role="line"
           id="tspan1073"
           x="221.70824"
           y="77.297409"
           style="font-style:normal;font-variant:normal;font-weight:normal;font-stretch:normal;font-family:Sniglet;-inkscape-font-specification:Sniglet;text-align:center;text-anchor:middle;fill:none;fill-opacity:1;stroke:#000000;stroke-width:0.44982001;stroke-miterlimit:4;stroke-dasharray:none;stroke-opacity:1">18 - 23</tspan></text>
    </g>
    <g
       style="opacity:0.68"
       id="g1167">
      <text
         xml:space="preserve"
         style="font-style:normal;font-variant:normal;font-weight:normal;font-stretch:normal;font-size:5.64480019px;line-height:1.25;font-family:Sniglet;-inkscape-font-specification:Sniglet;text-align:center;letter-spacing:0px;word-spacing:0px;text-anchor:middle;fill:#ffffff;fill-opacity:1;stroke:none;stroke-width:0.26460001"
         x="158.20415"
         y="76.908363"
         id="text853-3"><tspan
           sodipodi:role="line"
           id="tspan851-6"
           x="158.20415"
           y="76.908363"
           style="font-style:normal;font-variant:normal;font-weight:normal;font-stretch:normal;font-family:Sniglet;-inkscape-font-specification:Sniglet;text-align:center;text-anchor:middle;fill:#ffffff;fill-opacity:1;stroke-width:0.26460001">0 - 5</tspan></text>
      <text
         id="text1051"
         y="76.908363"
         x="179.37218"
         style="font-style:normal;font-variant:normal;font-weight:normal;font-stretch:normal;font-size:5.64480019px;line-height:1.25;font-family:Sniglet;-inkscape-font-specification:Sniglet;text-align:center;letter-spacing:0px;word-spacing:0px;text-anchor:middle;fill:#ffffff;fill-opacity:1;stroke:none;stroke-width:0.26460001"
         xml:space="preserve"><tspan
           style="font-style:normal;font-variant:normal;font-weight:normal;font-stretch:normal;font-family:Sniglet;-inkscape-font-specification:Sniglet;text-align:center;text-anchor:middle;fill:#ffffff;fill-opacity:1;stroke-width:0.26460001"
           y="76.908363"
           x="179.37218"
           id="tspan1049"
           sodipodi:role="line">6 - 11</tspan></text>
      <text
         xml:space="preserve"
         style="font-style:normal;font-variant:normal;font-weight:normal;font-stretch:normal;font-size:5.64480019px;line-height:1.25;font-family:Sniglet;-inkscape-font-specification:Sniglet;text-align:center;letter-spacing:0px;word-spacing:0px;text-anchor:middle;fill:#ffffff;fill-opacity:1;stroke:none;stroke-width:0.26460001"
         x="200.54021"
         y="76.908363"
         id="text1055"><tspan
           sodipodi:role="line"
           id="tspan1053"
           x="200.54021"
           y="76.908363"
           style="font-style:normal;font-variant:normal;font-weight:normal;font-stretch:normal;font-family:Sniglet;-inkscape-font-specification:Sniglet;text-align:center;text-anchor:middle;fill:#ffffff;fill-opacity:1;stroke-width:0.26460001">12 - 17</tspan></text>
      <text
         id="text1059"
         y="76.908363"
         x="221.70824"
         style="font-style:normal;font-variant:normal;font-weight:normal;font-stretch:normal;font-size:5.64480019px;line-height:1.25;font-family:Sniglet;-inkscape-font-specification:Sniglet;text-align:center;letter-spacing:0px;word-spacing:0px;text-anchor:middle;fill:#ffffff;fill-opacity:1;stroke:none;stroke-width:0.26460001"
         xml:space="preserve"><tspan
           style="font-style:normal;font-variant:normal;font-weight:normal;font-stretch:normal;font-family:Sniglet;-inkscape-font-specification:Sniglet;text-align:center;text-anchor:middle;fill:#ffffff;fill-opacity:1;stroke-width:0.26460001"
           y="76.908363"
           x="221.70824"
           id="tspan1057"
           sodipodi:role="line">18 - 23</tspan></text>
    </g>
  </g>
  <path
     inkscape:connector-curvature="0"
     style="fill:#ff3c6d;fill-opacity:1;paint-order:stroke fill"
     d="m -92.615,9.4405 c 10.49,0 43.86,19.26 49.1,28.35 5.244,9.084 5.244,47.61 -10e-6,56.7 -5.244,9.084 -38.61,28.35 -49.1,28.35 -10.49,0 -43.86,-19.26 -49.1,-28.35 -5.244,-9.084 -5.244,-47.61 0,-56.7 5.244,-9.084 38.61,-28.35 49.100001,-28.35 z"
     id="path1272" />
  <g
     id="g1535"
     transform="matrix(1.0140321,0,0,1.0140321,-159.68816,-0.928166)"
     style="stroke-width:0.9861629">
    <g
       style="stroke-width:0.88930351"
       transform="matrix(1.1089165,0,0,1.1089165,-7.2047576,-7.2047829)"
       id="g1498">
      <g
         transform="matrix(3.9026447,0,0,3.9026447,-323.5859,-115.02638)"
         id="g1328"
         style="stroke-width:0.22787175">
        <g
           style="fill:#ffffff;stroke-width:0.22787175"
           transform="matrix(0.8916,0,0,0.8916,41,38.7)"
           id="g1324">
          <path
             inkscape:connector-curvature="0"
             id="path1310"
             d="M 66.12,4.72 A 3.961,3.961 0 0 0 62.159,8.681 3.961,3.961 0 0 0 66.12,12.643 3.961,3.961 0 0 0 70.081,8.681 3.961,3.961 0 0 0 66.12,4.72 Z"
             style="stroke-width:0.22787175" />
          <path
             inkscape:connector-curvature="0"
             id="path1312"
             d="m 59.31,8.205 c -0.2637,0 -0.4771,0.212 -0.4771,0.4757 0,0.2637 0.2134,0.4771 0.4771,0.4771 h 1.105 c 0.2637,0 0.4771,-0.2134 0.4771,-0.4771 0,-0.2637 -0.2134,-0.4757 -0.4771,-0.4757 z"
             style="stroke-width:0.22787175" />
          <path
             inkscape:connector-curvature="0"
             id="path1314"
             d="m 71.82,8.205 c -0.2637,0 -0.4771,0.212 -0.4771,0.4757 0,0.2637 0.2134,0.4771 0.4771,0.4771 h 1.105 c 0.2637,0 0.4771,-0.2134 0.4771,-0.4771 0,-0.2637 -0.2134,-0.4757 -0.4771,-0.4757 z"
             style="stroke-width:0.22787175" />
          <path
             inkscape:connector-curvature="0"
             id="path1316"
             d="m 69.47,2.362 c -0.1179,0.03018 -0.2251,0.1055 -0.2923,0.219 l -0.5628,0.952 c -0.1344,0.2269 -0.05989,0.5181 0.167,0.6524 0.2268,0.1344 0.518,0.0599 0.6524,-0.167 l 0.5628,-0.952 C 70.1315,2.8395 70.05699,2.5483 69.8301,2.414 69.7167,2.34677 69.5878,2.33182 69.4699,2.36204 Z"
             style="stroke-width:0.22787175" />
          <path
             inkscape:connector-curvature="0"
             id="path1318"
             d="m 63.1,13.12 c -0.1179,0.03018 -0.2251,0.1056 -0.2923,0.219 l -0.5628,0.952 c -0.1344,0.2269 -0.06025,0.5167 0.1667,0.6511 0.2269,0.1344 0.5181,0.0599 0.6524,-0.167 l 0.5631,-0.9507 c 0.1344,-0.2269 0.05989,-0.5181 -0.167,-0.6524 -0.1135,-0.0672 -0.2423,-0.08217 -0.3602,-0.05195 z"
             style="stroke-width:0.22787175" />
          <path
             inkscape:connector-curvature="0"
             id="path1320"
             d="m 62.77,2.362 c -0.1179,-0.03018 -0.2467,-0.01524 -0.3602,0.05197 -0.2269,0.1344 -0.3015,0.4255 -0.167,0.6524 l 0.5628,0.952 c 0.1344,0.2269 0.4255,0.3015 0.6524,0.167 0.2269,-0.1344 0.3015,-0.4255 0.167,-0.6524 l -0.5628,-0.952 c -0.0672,-0.1135 -0.1744,-0.1889 -0.2923,-0.219 z"
             style="stroke-width:0.22787175" />
          <path
             inkscape:connector-curvature="0"
             id="path1322"
             d="m 69.14,13.12 c -0.1179,-0.03018 -0.2467,-0.01526 -0.3602,0.05197 -0.2269,0.1344 -0.3015,0.4255 -0.167,0.6524 l 0.5631,0.9507 c 0.1344,0.2269 0.4255,0.3015 0.6525,0.167 0.2268,-0.1344 0.3011,-0.4242 0.1667,-0.6511 l -0.5628,-0.952 c -0.06708,-0.1135 -0.1744,-0.1889 -0.2923,-0.219 z"
             style="stroke-width:0.22787175" />
        </g>
        <path
           inkscape:connector-curvature="0"
           style="opacity:0.53899997;fill:#ff3c6d;fill-opacity:1;stroke-width:0.20317042"
           d="m 100,39.5 c -3.972,-4.92e-4 -6.924,2.683 -6.925,6.655 -4.91e-4,3.973 2.414,7.193 6.387,7.193 3.972,-1.77e-4 7.193,-3.22 7.192,-7.193 -1.8e-4,-3.972 -2.683,-6.655 -6.655,-6.655 z m 1.513,2.902 c 1.373,0.7498 2.226,2.189 2.226,3.753 7e-5,2.362 -1.915,4.277 -4.277,4.277 -1.75,-7.87e-4 -3.324,-1.068 -3.971,-2.694 4.204,2.119 7.313,-2.243 6.022,-5.336 z"
           id="path1326" />
      </g>
      <circle
         style="opacity:1;vector-effect:none;fill:#ff3c6d;fill-opacity:1;fill-rule:nonzero;stroke:none;stroke-width:0.40002653;stroke-linecap:butt;stroke-linejoin:miter;stroke-miterlimit:4;stroke-dasharray:none;stroke-dashoffset:6.08506203;stroke-opacity:1;paint-order:stroke markers fill"
         id="path1485"
         cx="66.430305"
         cy="66.290154"
         r="8.9694958" />
    </g>
    <text
       id="text1344-7"
       y="65.388741"
       x="66.476509"
       style="font-style:normal;font-variant:normal;font-weight:normal;font-stretch:normal;font-size:7.2929101px;line-height:1;font-family:Sniglet;-inkscape-font-specification:Sniglet;text-align:center;letter-spacing:0px;word-spacing:0px;text-anchor:middle;fill:#ffffff;fill-opacity:1;stroke:none;stroke-width:0.2609385"
       xml:space="preserve"><tspan
         style="font-style:normal;font-variant:normal;font-weight:normal;font-stretch:normal;font-family:Sniglet;-inkscape-font-specification:Sniglet;text-align:center;text-anchor:middle;fill:#ffffff;fill-opacity:1;stroke-width:0.2609385"
         y="65.388741"
         x="66.476509"
         id="tspan1342-5"
         sodipodi:role="line">AM</tspan><tspan
         id="tspan1518"
         style="font-style:normal;font-variant:normal;font-weight:normal;font-stretch:normal;font-family:Sniglet;-inkscape-font-specification:Sniglet;text-align:center;text-anchor:middle;fill:#ffffff;fill-opacity:1;stroke-width:0.2609385"
         y="72.681648"
         x="66.476509"
         sodipodi:role="line">PM</tspan></text>
  </g>
  <g
     transform="translate(-158.765,-0.0095)"
     style="fill-opacity:0.20369999"
     id="g1286">
    <path
       inkscape:connector-curvature="0"
       style="fill:#cb3057;fill-opacity:1;paint-order:stroke fill"
       d="m 66.15,9.449 c -5.244,0 -16.21,4.816 -26.52,10.77 8.497,-4.906 44.54,-4.906 53.03,0 C 82.35,14.267 71.39,9.449 66.14,9.449 Z"
       id="path1274" />
    <path
       inkscape:connector-curvature="0"
       style="paint-order:stroke fill"
       d="m 92.66,20.22 c 8.497,4.906 26.52,36.12 26.52,45.93 0,-11.9 -1.311,-23.81 -3.933,-28.35 -2.622,-4.542 -12.28,-11.63 -22.58,-17.58 z"
       id="path1276" />
    <path
       inkscape:connector-curvature="0"
       style="paint-order:stroke fill"
       d="m 119.2,66.15 c 0,9.811 -18.02,41.02 -26.52,45.93 10.31,-5.952 19.96,-13.04 22.58,-17.58 2.622,-4.542 3.933,-16.44 3.933,-28.35 z"
       id="path1278" />
    <path
       inkscape:connector-curvature="0"
       style="paint-order:stroke fill"
       d="m 92.66,112.1 c -8.497,4.906 -44.54,4.906 -53.03,0 10.31,5.952 21.27,10.77 26.52,10.77 5.244,0 16.21,-4.816 26.52,-10.77 z"
       id="path1280" />
    <path
       inkscape:connector-curvature="0"
       style="paint-order:stroke fill"
       d="M 39.63,112.1 C 31.133,107.194 13.11,75.98 13.11,66.17 c 0,11.9 1.311,23.81 3.933,28.35 2.622,4.542 12.28,11.63 22.58,17.58 z"
       id="path1282" />
    <path
       inkscape:connector-curvature="0"
       style="paint-order:stroke fill"
       d="M 13.11,66.15 C 13.11,56.339 31.13,25.13 39.63,20.22 29.32,26.172 19.67,33.26 17.05,37.8 14.428,42.342 13.117,54.24 13.117,66.15 Z"
       id="path1284" />
  </g>
  <g
     transform="translate(-158.765,-0.0095)"
     style="fill:#0b0808;fill-opacity:0.11760003"
     id="g1300">
    <path
       inkscape:connector-curvature="0"
       style="paint-order:stroke fill"
       d="m 119.2,66.15 c 0,-4.906 -4.505,-15.16 -10.07,-24.8 4.589,7.948 4.589,41.66 0,49.61 5.567,-9.642 10.07,-19.9 10.07,-24.8 z"
       id="path1288" />
    <path
       inkscape:connector-curvature="0"
       style="paint-order:stroke fill"
       d="m 109.1,90.95 c -4.589,7.948 -33.78,24.8 -42.96,24.8 11.13,0 22.27,-1.226 26.52,-3.679 4.248,-2.453 10.88,-11.48 16.44,-21.12 z"
       id="path1290" />
    <path
       inkscape:connector-curvature="0"
       style="paint-order:stroke fill"
       d="m 66.15,115.8 c -9.177,0 -38.37,-16.86 -42.96,-24.8 5.567,9.642 12.2,18.67 16.44,21.12 4.248,2.453 15.38,3.679 26.52,3.679 z"
       id="path1292" />
    <path
       inkscape:connector-curvature="0"
       style="paint-order:stroke fill"
       d="m 23.18,90.95 c -4.589,-7.948 -4.589,-41.66 0,-49.61 -5.567,9.642 -10.07,19.9 -10.07,24.8 0,4.906 4.505,15.16 10.07,24.8 z"
       id="path1294" />
    <path
       inkscape:connector-curvature="0"
       style="fill:#e23560;fill-opacity:1;paint-order:stroke fill"
       d="m 23.18,41.34 c 4.589,-7.948 33.78,-24.8 42.96,-24.8 -11.13,0 -22.27,1.226 -26.52,3.679 -4.248,2.453 -10.88,11.48 -16.44,21.12 z"
       id="path1296" />
    <path
       inkscape:connector-curvature="0"
       style="fill:#e23560;fill-opacity:1;paint-order:stroke fill"
       d="m 66.15,16.54 c 9.177,0 38.37,16.86 42.96,24.8 C 103.543,31.698 96.91,22.67 92.67,20.22 88.422,17.767 77.29,16.541 66.15,16.541 Z"
       id="path1298" />
  </g>
  <text
     id="text1332"
     y="31.212927"
     x="-92.274208"
     style="font-style:normal;font-variant:normal;font-weight:normal;font-stretch:normal;font-size:9.24166775px;line-height:1.25;font-family:Sniglet;-inkscape-font-specification:Sniglet;text-align:center;letter-spacing:0px;word-spacing:0px;text-anchor:middle;fill:#ffffff;fill-opacity:1;stroke:none;stroke-width:0.2645998"
     xml:space="preserve"><tspan
       style="font-style:normal;font-variant:normal;font-weight:normal;font-stretch:normal;font-family:Sniglet;-inkscape-font-specification:Sniglet;text-align:center;text-anchor:middle;fill:#ffffff;fill-opacity:1;stroke-width:0.2645998"
       y="31.212927"
       x="-92.274208"
       id="tspan1330"
       sodipodi:role="line">6, 12</tspan></text>
  <text
     xml:space="preserve"
     style="font-style:normal;font-variant:normal;font-weight:normal;font-stretch:normal;font-size:9.24166775px;line-height:1.25;font-family:Sniglet;-inkscape-font-specification:Sniglet;text-align:center;letter-spacing:0px;word-spacing:0px;text-anchor:middle;fill:#ffffff;fill-opacity:1;stroke:none;stroke-width:0.2645998"
     x="-92.274208"
     y="110.67017"
     id="text1336"><tspan
       sodipodi:role="line"
       id="tspan1334"
       x="-92.274208"
       y="110.67017"
       style="font-style:normal;font-variant:normal;font-weight:normal;font-stretch:normal;font-family:Sniglet;-inkscape-font-specification:Sniglet;text-align:center;text-anchor:middle;fill:#ffffff;fill-opacity:1;stroke-width:0.2645998">3, 9</tspan></text>
  <text
     id="text1340"
     y="90.85627"
     x="-125.54181"
     style="font-style:normal;font-variant:normal;font-weight:normal;font-stretch:normal;font-size:9.24166775px;line-height:1.25;font-family:Sniglet;-inkscape-font-specification:Sniglet;text-align:center;letter-spacing:0px;word-spacing:0px;text-anchor:middle;fill:#ffffff;fill-opacity:1;stroke:none;stroke-width:0.2645998"
     xml:space="preserve"><tspan
       style="font-style:normal;font-variant:normal;font-weight:normal;font-stretch:normal;font-family:Sniglet;-inkscape-font-specification:Sniglet;text-align:center;text-anchor:middle;fill:#ffffff;fill-opacity:1;stroke-width:0.2645998"
       y="90.85627"
       x="-125.54181"
       id="tspan1338"
       sodipodi:role="line">4, 10</tspan></text>
  <text
     xml:space="preserve"
     style="font-style:normal;font-variant:normal;font-weight:normal;font-stretch:normal;font-size:9.24166775px;line-height:1.25;font-family:Sniglet;-inkscape-font-specification:Sniglet;text-align:center;letter-spacing:0px;word-spacing:0px;text-anchor:middle;fill:#ffffff;fill-opacity:1;stroke:none;stroke-width:0.2645998"
     x="-127.59464"
     y="53.281326"
     id="text1344"><tspan
       sodipodi:role="line"
       id="tspan1342"
       x="-127.59464"
       y="53.281326"
       style="font-style:normal;font-variant:normal;font-weight:normal;font-stretch:normal;font-family:Sniglet;-inkscape-font-specification:Sniglet;text-align:center;text-anchor:middle;fill:#ffffff;fill-opacity:1;stroke-width:0.2645998">5, 11</tspan></text>
  <text
     id="text1348"
     y="53.432648"
     x="-56.953732"
     style="font-style:normal;font-variant:normal;font-weight:normal;font-stretch:normal;font-size:9.24166775px;line-height:1.25;font-family:Sniglet;-inkscape-font-specification:Sniglet;text-align:center;letter-spacing:0px;word-spacing:0px;text-anchor:middle;fill:#ffffff;fill-opacity:1;stroke:none;stroke-width:0.2645998"
     xml:space="preserve"><tspan
       style="font-style:normal;font-variant:normal;font-weight:normal;font-stretch:normal;font-family:Sniglet;-inkscape-font-specification:Sniglet;text-align:center;text-anchor:middle;fill:#ffffff;fill-opacity:1;stroke-width:0.2645998"
       y="53.432648"
       x="-56.953732"
       id="tspan1346"
       sodipodi:role="line">1, 7</tspan></text>
  <text
     xml:space="preserve"
     style="font-style:normal;font-variant:normal;font-weight:normal;font-stretch:normal;font-size:9.24166775px;line-height:1.25;font-family:Sniglet;-inkscape-font-specification:Sniglet;text-align:center;letter-spacing:0px;word-spacing:0px;text-anchor:middle;fill:#ffffff;fill-opacity:1;stroke:none;stroke-width:0.2645998"
     x="-56.953732"
     y="90.904045"
     id="text1352"><tspan
       sodipodi:role="line"
       id="tspan1350"
       x="-56.953732"
       y="90.904045"
       style="font-style:normal;font-variant:normal;font-weight:normal;font-stretch:normal;font-family:Sniglet;-inkscape-font-specification:Sniglet;text-align:center;text-anchor:middle;fill:#ffffff;fill-opacity:1;stroke-width:0.2645998">2, 8</tspan></text>
</svg>
