<?xml version="1.0" encoding="UTF-8" standalone="no"?>
<!-- Created with Inkscape (http://www.inkscape.org/) -->

<svg
   xmlns:dc="http://purl.org/dc/elements/1.1/"
   xmlns:cc="http://creativecommons.org/ns#"
   xmlns:rdf="http://www.w3.org/1999/02/22-rdf-syntax-ns#"
   xmlns:svg="http://www.w3.org/2000/svg"
   xmlns="http://www.w3.org/2000/svg"
   xmlns:xlink="http://www.w3.org/1999/xlink"
   xmlns:sodipodi="http://sodipodi.sourceforge.net/DTD/sodipodi-0.dtd"
   xmlns:inkscape="http://www.inkscape.org/namespaces/inkscape"
   width="160"
   height="160"
   viewBox="0 0 42.33333 42.333332"
   version="1.1"
   id="svg8"
   inkscape:version="0.92.2 2405546, 2018-03-11"
   sodipodi:docname="favicon.svg"
   inkscape:export-filename="/home/jake/code/cloch/img/favicon.png"
   inkscape:export-xdpi="307.20001"
   inkscape:export-ydpi="307.20001">
  <defs
     id="defs2">
    <linearGradient
       id="linearGradient1040"
       inkscape:collect="always">
      <stop
         id="stop1034"
         offset="0"
         style="stop-color:#000000;stop-opacity:0.06521739" />
      <stop
         style="stop-color:#000000;stop-opacity:0.08695652"
         offset="0.44057047"
         id="stop1036" />
      <stop
         id="stop1038"
         offset="1"
         style="stop-color:#000000;stop-opacity:0;" />
    </linearGradient>
    <filter
       inkscape:label="filtro0"
       id="filter1397"
       style="color-interpolation-filters:sRGB">
      <feBlend
         id="feBlend1399"
         in2="SourceGraphic"
         mode="normal" />
    </filter>
    <filter
       inkscape:label="filtro0"
       id="filter1397-6"
       style="color-interpolation-filters:sRGB">
      <feBlend
         id="feBlend1399-3"
         in2="SourceGraphic"
         mode="normal" />
    </filter>
    <radialGradient
       inkscape:collect="always"
       xlink:href="#linearGradient1040"
       id="radialGradient1032"
       cx="109.47071"
       cy="200.29883"
       fx="109.47071"
       fy="200.29883"
       r="57.007816"
       gradientTransform="matrix(0.35063059,-0.00149106,0.00159892,0.37599527,-9.739917,169.01419)"
       gradientUnits="userSpaceOnUse" />
  </defs>
  <sodipodi:namedview
     id="base"
     pagecolor="#ffffff"
     bordercolor="#666666"
     borderopacity="1.0"
     inkscape:pageopacity="0.0"
     inkscape:pageshadow="2"
     inkscape:zoom="2.8"
     inkscape:cx="115.13761"
     inkscape:cy="61.845561"
     inkscape:document-units="mm"
     inkscape:current-layer="layer1"
     showgrid="false"
     inkscape:window-width="1366"
     inkscape:window-height="708"
     inkscape:window-x="0"
     inkscape:window-y="0"
     inkscape:window-maximized="1"
     units="px"
     showguides="true"
     inkscape:guide-bbox="true"
     inkscape:snap-global="true"
     inkscape:snap-bbox="true"
     inkscape:bbox-nodes="true"
     inkscape:snap-bbox-midpoints="true"
     inkscape:bbox-paths="true"
     inkscape:snap-bbox-edge-midpoints="true"
     inkscape:object-paths="true"
     inkscape:object-nodes="true"
     inkscape:snap-object-midpoints="true"
     inkscape:snap-center="true"
     inkscape:snap-intersection-paths="true"
     inkscape:snap-smooth-nodes="true"
     inkscape:snap-midpoints="true"
     inkscape:pagecheckerboard="true" />
  <metadata
     id="metadata5">
    <rdf:RDF>
      <cc:Work
         rdf:about="">
        <dc:format>image/svg+xml</dc:format>
        <dc:type
           rdf:resource="http://purl.org/dc/dcmitype/StillImage" />
        <dc:title></dc:title>
      </cc:Work>
    </rdf:RDF>
  </metadata>
  <g
     inkscape:label="Livello 1"
     inkscape:groupmode="layer"
     id="layer1"
     transform="translate(-9.0002388,-223.10579)">
    <g
       id="layer3"
       inkscape:label="circle"
       style="display:none"
       transform="matrix(0.25,0,0,0.25,69.264139,239.8311)">
      <circle
         transform="translate(0,-164.70832)"
         style="opacity:1;fill:#0064f7;fill-opacity:0.54477617;fill-rule:nonzero;stroke:none;stroke-width:2.11666656;stroke-linecap:round;stroke-linejoin:round;stroke-miterlimit:4;stroke-dasharray:none;stroke-dashoffset:0;stroke-opacity:1;paint-order:stroke fill markers"
         id="path875"
         cx="66.145836"
         cy="230.85414"
         r="56.69643" />
    </g>
    <g
       id="layer5"
       inkscape:label="SUBHEX"
       style="display:none"
       transform="matrix(0.25,0,0,0.25,69.264139,239.8311)">
      <g
         transform="translate(0,-164.70832)"
         style="display:inline"
         id="g1482">
        <path
           d="m 66.136681,234.4939 c 4.883479,0 20.41889,8.96938 22.860629,13.19859 2.441739,4.22922 2.441739,22.16797 -10e-7,26.39718 -2.441739,4.22922 -17.977151,13.19859 -22.860629,13.19859 -4.883479,0 -20.41889,-8.96937 -22.860629,-13.19859 -2.441739,-4.22921 -2.441738,-22.16796 10e-7,-26.39718 2.441739,-4.22921 17.977151,-13.19859 22.860629,-13.19859 z"
           inkscape:randomized="0"
           inkscape:rounded="0.185"
           inkscape:flatsided="true"
           sodipodi:arg2="-1.0471975"
           sodipodi:arg1="-1.5707963"
           sodipodi:r2="19.032364"
           sodipodi:r1="26.397181"
           sodipodi:cy="260.89108"
           sodipodi:cx="66.136681"
           sodipodi:sides="6"
           id="path1430"
           style="opacity:1;fill:#000000;fill-opacity:0.08196722;fill-rule:nonzero;stroke:none;stroke-width:0.98549461;stroke-linecap:round;stroke-linejoin:round;stroke-miterlimit:4;stroke-dasharray:none;stroke-dashoffset:0;stroke-opacity:1;paint-order:stroke fill markers"
           sodipodi:type="star" />
        <path
           sodipodi:type="star"
           style="opacity:1;fill:#000000;fill-opacity:0.08196722;fill-rule:nonzero;stroke:none;stroke-width:0.98549461;stroke-linecap:round;stroke-linejoin:round;stroke-miterlimit:4;stroke-dasharray:none;stroke-dashoffset:0;stroke-opacity:1;paint-order:stroke fill markers"
           id="path1434"
           sodipodi:sides="6"
           sodipodi:cx="92.328911"
           sodipodi:cy="215.63383"
           sodipodi:r1="26.397181"
           sodipodi:r2="19.032364"
           sodipodi:arg1="-1.5707963"
           sodipodi:arg2="-1.0471975"
           inkscape:flatsided="true"
           inkscape:rounded="0.185"
           inkscape:randomized="0"
           d="m 92.328912,189.23665 c 4.883478,0 20.418888,8.96938 22.860628,13.1986 2.44174,4.22921 2.44174,22.16796 0,26.39718 -2.44174,4.22921 -17.977151,13.19859 -22.86063,13.19859 -4.883478,0 -20.418889,-8.96938 -22.860628,-13.1986 -2.44174,-4.22921 -2.441739,-22.16796 0,-26.39718 2.44174,-4.22921 17.977151,-13.19859 22.86063,-13.19859 z" />
        <path
           d="m 40.015408,189.23665 c 4.883479,0 20.41889,8.96938 22.860629,13.1986 2.441739,4.22921 2.441738,22.16796 -10e-7,26.39718 -2.441739,4.22921 -17.977151,13.19859 -22.860629,13.19859 -4.883479,0 -20.41889,-8.96938 -22.860629,-13.1986 -2.441739,-4.22921 -2.441738,-22.16796 1e-6,-26.39718 2.441739,-4.22921 17.977151,-13.19859 22.860629,-13.19859 z"
           inkscape:randomized="0"
           inkscape:rounded="0.185"
           inkscape:flatsided="true"
           sodipodi:arg2="-1.0471975"
           sodipodi:arg1="-1.5707963"
           sodipodi:r2="19.032364"
           sodipodi:r1="26.397181"
           sodipodi:cy="215.63383"
           sodipodi:cx="40.015408"
           sodipodi:sides="6"
           id="path1436"
           style="opacity:1;fill:#000000;fill-opacity:0.08196722;fill-rule:nonzero;stroke:none;stroke-width:0.98549461;stroke-linecap:round;stroke-linejoin:round;stroke-miterlimit:4;stroke-dasharray:none;stroke-dashoffset:0;stroke-opacity:1;paint-order:stroke fill markers"
           sodipodi:type="star" />
      </g>
    </g>
    <g
       id="layer4"
       inkscape:label="hex 1spigolo"
       style="display:none"
       transform="matrix(0.25,0,0,0.25,69.264139,239.8311)">
      <path
         transform="translate(0,-164.70832)"
         sodipodi:type="star"
         style="display:inline;opacity:1;fill:#eaff02;fill-opacity:0.54477617;fill-rule:nonzero;stroke:none;stroke-width:2.11666656;stroke-linecap:round;stroke-linejoin:round;stroke-miterlimit:4;stroke-dasharray:none;stroke-dashoffset:0;stroke-opacity:1;paint-order:stroke fill markers"
         id="path885"
         sodipodi:sides="6"
         sodipodi:cx="66.145828"
         sodipodi:cy="230.85416"
         sodipodi:r1="56.696438"
         sodipodi:r2="40.878132"
         sodipodi:arg1="-1.5707963"
         sodipodi:arg2="-1.0471975"
         inkscape:flatsided="true"
         inkscape:rounded="0"
         inkscape:randomized="0"
         d="m 66.14583,174.15772 49.10055,28.34822 0,56.69644 -49.100553,28.34821 -49.100555,-28.34822 2e-6,-56.69643 z" />
    </g>
    <g
       id="layer2"
       inkscape:label="star"
       style="display:none"
       transform="matrix(0.25,0,0,0.25,69.264139,239.8311)">
      <path
         transform="translate(0,-164.70832)"
         sodipodi:type="star"
         style="opacity:1;fill:#a70000;fill-opacity:0.54477617;fill-rule:nonzero;stroke:none;stroke-width:2.11666656;stroke-linecap:round;stroke-linejoin:round;stroke-miterlimit:4;stroke-dasharray:none;stroke-dashoffset:0;stroke-opacity:1;paint-order:stroke fill markers"
         id="path877"
         sodipodi:sides="6"
         sodipodi:cx="66.145828"
         sodipodi:cy="230.85416"
         sodipodi:r1="56.696438"
         sodipodi:r2="40.878132"
         sodipodi:arg1="-1.5707963"
         sodipodi:arg2="-1.0471975"
         inkscape:flatsided="false"
         inkscape:rounded="0.23"
         inkscape:randomized="0"
         d="m 66.14583,174.15772 c 6.788818,0 14.559777,17.90053 20.439066,21.29494 5.879289,3.39441 25.267084,1.17399 28.661484,7.05328 3.39441,5.87929 -8.22242,21.5594 -8.22242,28.34822 0,6.78882 11.61683,22.46893 8.22242,28.34822 -3.39441,5.87929 -22.782198,3.65887 -28.661488,7.05328 -5.879289,3.39441 -13.650247,21.29493 -20.439065,21.29493 -6.788819,0 -14.559777,-17.90052 -20.439066,-21.29493 -5.879289,-3.39441 -25.26708,-1.174 -28.661489,-7.05329 -3.394409,-5.87929 8.222424,-21.5594 8.222424,-28.34822 10e-7,-6.78881 -11.616832,-22.46892 -8.222422,-28.34821 3.394409,-5.87929 22.782201,-3.65888 28.66149,-7.05329 5.879289,-3.3944 13.650248,-21.29493 20.439066,-21.29493 z" />
    </g>
    <g
       id="g1129"
       transform="translate(1.1916865,0.20005167)">
      <g
         transform="matrix(0.97095067,0,0,0.97095067,0.8416687,7.089818)"
         id="g1569">
        <path
           inkscape:connector-curvature="0"
           id="path1080"
           d="m 15.472096,230.06499 4.006507,-2.54259 3.697081,14.85302 h 11.601434 l 3.696092,-14.84905 4.007742,2.53862 -3.448619,13.17788 3.462203,14.84192 -4.219379,2.6715 -3.498039,-15.41501 H 23.175929 l -3.705968,15.29498 -4.014162,-2.54597 3.339655,-14.18889 z"
           style="fill:#ffffff;fill-opacity:1;stroke:none;stroke-width:0.26458332px;stroke-linecap:butt;stroke-linejoin:miter;stroke-opacity:1" />
        <g
           transform="matrix(0.9557525,0,0,0.9557525,1.2821383,10.800073)"
           id="g1078">
          <path
             style="opacity:1;fill:#00d7f7;fill-opacity:1;fill-rule:nonzero;stroke:none;stroke-width:0.79727763;stroke-linecap:round;stroke-linejoin:round;stroke-miterlimit:4;stroke-dasharray:none;stroke-dashoffset:0;stroke-opacity:1;paint-order:stroke fill markers"
             d="m 28.976784,222.72752 c -1.966947,0 -6.069587,1.79967 -9.937896,4.02818 l 3.868497,15.54065 h 12.138278 l 3.868498,-15.54117 c -3.86813,-2.22835 -7.970534,-4.02766 -9.937377,-4.02766 z"
             id="path1536"
             inkscape:connector-curvature="0" />
          <path
             style="opacity:1;fill:#00b7fb;fill-opacity:1;fill-rule:nonzero;stroke:none;stroke-width:0.79727763;stroke-linecap:round;stroke-linejoin:round;stroke-miterlimit:4;stroke-dasharray:none;stroke-dashoffset:0;stroke-opacity:1;paint-order:stroke fill markers"
             d="m 14.846896,229.416 c -2.097947,1.47867 -3.748217,2.92093 -4.365109,3.98942 -1.9753977,3.42149 -1.9753977,17.93431 0,21.3558 0.615201,1.06556 2.258317,2.50312 4.348057,3.97754 1.95436,-4.84134 4.801772,-12.30473 4.801772,-14.75311 0,-2.44096 -2.830785,-9.7845 -4.78472,-14.56965 z"
             id="path1538"
             inkscape:connector-curvature="0" />
          <path
             style="opacity:1;fill:#02ffb2;fill-opacity:1;fill-rule:nonzero;stroke:none;stroke-width:0.79727763;stroke-linecap:round;stroke-linejoin:round;stroke-miterlimit:4;stroke-dasharray:none;stroke-dashoffset:0;stroke-opacity:1;paint-order:stroke fill markers"
             d="m 43.106153,229.416 c -1.953937,4.78515 -4.784721,12.12869 -4.784721,14.56965 0,2.44838 2.847411,9.91177 4.801774,14.75311 2.089739,-1.47442 3.732855,-2.91198 4.348055,-3.97754 1.975398,-3.42149 1.975398,-17.93431 0,-21.3558 -0.616892,-1.06849 -2.26716,-2.51075 -4.365108,-3.98942 z"
             id="path1540"
             inkscape:connector-curvature="0" />
          <path
             style="opacity:1;fill:#00f7e7;fill-opacity:1;fill-rule:nonzero;stroke:none;stroke-width:0.79727763;stroke-linecap:round;stroke-linejoin:round;stroke-miterlimit:4;stroke-dasharray:none;stroke-dashoffset:0;stroke-opacity:1;paint-order:stroke fill markers"
             d="m 22.907385,245.39952 -3.878316,16.00626 c 3.871132,2.23107 7.979133,4.03334 9.947715,4.03334 1.968513,0 6.076179,-1.80237 9.947195,-4.03334 l -3.878316,-16.00626 z"
             id="path1542"
             inkscape:connector-curvature="0" />
          <path
             style="opacity:1;fill:url(#radialGradient1032);fill-opacity:1;fill-rule:nonzero;stroke:none;stroke-width:0.79727763;stroke-linecap:round;stroke-linejoin:round;stroke-miterlimit:4;stroke-dasharray:none;stroke-dashoffset:0;stroke-opacity:1;paint-order:stroke fill markers"
             d="m 37.962541,226.22446 c -0.04619,0.28586 -0.09817,0.58171 -0.175184,0.88522 -0.618723,2.43822 -1.234606,5.24698 -1.727025,7.953 -0.492234,2.70496 -1.146043,5.79909 -3.633888,6.24871 -2.940727,0.53146 -7.184595,0.83802 -8.552449,-1.80144 -2.682747,-5.17669 -2.97992,-8.7488 -4.028695,-13.20436 -0.04383,0.0244 -0.08745,0.0489 -0.131258,0.0734 -0.225277,0.12597 -0.450371,0.25239 -0.674377,0.38137 l 3.867464,15.536 h 12.138277 l 3.867465,-15.53651 c -0.173646,-0.10007 -0.347924,-0.19835 -0.522449,-0.29663 -0.142616,-0.0803 -0.285041,-0.15984 -0.427881,-0.23874 z m -23.113318,3.19722 c -0.333434,0.23505 -0.659673,0.46953 -0.968417,0.70176 0.972449,1.92548 2.123692,3.85063 2.36368,5.41983 0.0011,0.008 0.0037,0.0163 0.0072,0.0238 1.975702,4.49186 3.015546,9.58365 0.945679,14.20688 -0.0016,0.004 -0.0031,0.008 -0.0041,0.0124 -0.912426,2.83462 -2.077015,5.57678 -3.200838,8.33851 0.26977,0.20131 0.551821,0.40427 0.839742,0.60772 1.954291,-4.84151 4.79919,-12.29952 4.79919,-14.74691 0,-2.44003 -2.828279,-9.77869 -4.782137,-14.56397 z m 28.25409,0.002 c -1.95384,4.7853 -4.782138,12.1226 -4.782138,14.56241 0,2.44739 2.844896,9.90541 4.79919,14.74691 0.318699,-0.22507 0.630936,-0.44943 0.927076,-0.6718 -0.219218,-0.45868 -0.440589,-0.88579 -0.64389,-1.26297 -0.0016,-0.002 0.0095,0.0121 0.0083,0.008 -1.716056,-4.38392 -3.913973,-8.87782 -3.913973,-13.60227 v -0.004 c 0,-4.68937 2.331855,-8.93798 4.357357,-13.23433 -0.242734,-0.1798 -0.495001,-0.36078 -0.751891,-0.54209 z m -20.196184,15.97628 -3.877283,16.00264 c 0.07496,0.0432 0.149657,0.0868 0.224793,0.12971 0.338689,0.19329 0.678524,0.38301 1.018542,0.56844 0.09332,-0.74193 0.0088,-1.55822 0.181901,-2.43138 0.541169,-2.72975 1.223345,-6.44267 2.074292,-9.41027 0.427123,-1.48954 0.894368,-3.00116 2.039152,-3.47266 2.041556,-0.84086 7.202786,-1.57224 9.175667,-0.0465 2.282529,1.76518 2.968263,10.01857 3.464388,12.80852 0.154086,0.86649 0.352888,1.69787 0.62787,2.46445 0.290099,-0.15934 0.580247,-0.31977 0.869196,-0.48472 0.0727,-0.0415 0.144504,-0.0843 0.217043,-0.12609 l -3.877284,-16.00213 z"
             id="path1016"
             inkscape:connector-curvature="0" />
        </g>
      </g>
      <path
         sodipodi:nodetypes="scccsscccsccccccccccccs"
         inkscape:connector-curvature="0"
         id="path1091"
         d="m 28.975483,224.24793 c -1.825948,0 -5.634454,1.67061 -9.22545,3.73936 0,0 6.66e-4,0.004 0,0 l -3.891463,2.46952 c -1.947554,1.37264 -3.479397,2.7113 -4.052071,3.70322 -1.8337874,3.17619 -1.8337874,16.64897 0,19.82516 0.571099,0.98923 2.096077,2.32341 4.036012,3.69223 l 3.898985,2.47297 -5.12e-4,0.003 c 3.593629,2.07116 7.407024,3.74384 9.234485,3.74384 1.793164,0 5.497705,-1.61328 9.031208,-3.63043 0.0013,-7.1e-4 0.0024,-0.002 0.0036,-0.003 0.06622,-0.0381 0.133187,-0.0728 0.199271,-0.11086 l -0.0031,-0.0132 3.89848,-2.46851 -0.0011,-0.005 c 0.0013,0.003 0.0028,0.007 0.0041,0.0107 1.939934,-1.36878 3.464912,-2.703 4.036009,-3.69223 1.83379,-3.17619 1.83379,-16.64897 0,-19.82516 -0.572672,-0.99193 -2.104514,-2.33058 -4.052068,-3.70321 l -3.892462,-2.46599 0.0011,-0.004 c -3.590832,-2.06848 -7.399094,-3.73876 -9.224942,-3.73876 z"
         style="opacity:1;fill:none;fill-opacity:1;fill-rule:nonzero;stroke:#ffffff;stroke-width:2.63224959;stroke-linecap:round;stroke-linejoin:round;stroke-miterlimit:4;stroke-dasharray:none;stroke-dashoffset:0;stroke-opacity:1;paint-order:stroke fill markers" />
    </g>
  </g>
</svg>
